<?xml version="1.0" encoding="UTF-8" standalone="no"?>
<svg
   width="560px"
   height="153px"
   viewBox="0 0 560 153"
   style="background-color: #ffffff00"
   version="1.1"
   id="svg608"
   sodipodi:docname="2oj9_strucs.svg"
   inkscape:version="1.2 (dc2aedaf03, 2022-05-15)"
   xmlns:inkscape="http://www.inkscape.org/namespaces/inkscape"
   xmlns:sodipodi="http://sodipodi.sourceforge.net/DTD/sodipodi-0.dtd"
   xmlns="http://www.w3.org/2000/svg"
   xmlns:svg="http://www.w3.org/2000/svg">
  <defs
     id="defs612" />
  <sodipodi:namedview
     id="namedview610"
     pagecolor="#ffffff"
     bordercolor="#666666"
     borderopacity="1.0"
     inkscape:showpageshadow="2"
     inkscape:pageopacity="0.0"
     inkscape:pagecheckerboard="0"
     inkscape:deskcolor="#d1d1d1"
     showgrid="false"
     inkscape:zoom="2.1535714"
     inkscape:cx="233.79768"
     inkscape:cy="76.849088"
     inkscape:window-width="2560"
     inkscape:window-height="1377"
     inkscape:window-x="3432"
     inkscape:window-y="-8"
     inkscape:window-maximized="1"
     inkscape:current-layer="svg608" />
  <text
     x="0"
     y="0"
     stroke="transparent"
     fill="#000000"
     transform="matrix(0.0666667 0 0 0.0666667 135.135 72.6797)"
     style="font:normal normal normal 65.424px 'Arial'"
     id="text2">
NH</text>
  <text
     x="0"
     y="0"
     stroke="transparent"
     fill="#000000"
     transform="matrix(0.0666667 0 0 0.0666667 115.374 84.0114)"
     style="font:normal normal normal 65.424px 'Arial'"
     id="text4">
O</text>
  <text
     x="0"
     y="0"
     stroke="transparent"
     fill="#ff0000"
     transform="matrix(0.0666667 0 0 0.0666667 115.641 38.6177)"
     style="font:normal normal bold 65.424px 'Arial'"
     id="text6">
X</text>
  <text
     x="0"
     y="0"
     stroke="transparent"
     fill="#000000"
     transform="matrix(0.0666667 0 0 0.0666667 102.423 16.0208)"
     style="font:normal normal normal 65.424px 'Arial'"
     id="text8">
N</text>
  <text
     x="0"
     y="0"
     stroke="transparent"
     fill="#000000"
     transform="matrix(0.0666667 0 0 0.0666667 94.7318 71.9337)"
     style="font:normal normal normal 65.424px 'Arial'"
     id="text10">
NH</text>
  <text
     x="0"
     y="0"
     stroke="transparent"
     fill="#000000"
     transform="matrix(0.0666667 0 0 0.0666667 94.7318 50.7621)"
     style="font:normal normal normal 65.424px 'Arial'"
     id="text12">
N</text>
  <text
     x="0"
     y="0"
     stroke="transparent"
     fill="#000000"
     transform="matrix(0.0666667 0 0 0.0666667 34.1255 90.1663)"
     style="font:normal normal normal 65.424px 'Arial'"
     id="text14">
N</text>
  <text
     x="0"
     y="0"
     stroke="transparent"
     fill="#000000"
     transform="matrix(0.0666667 0 0 0.0666667 48.2921 74.4327)"
     style="font:normal normal normal 65.424px 'Arial'"
     id="text16">
N</text>
  <path
     stroke="transparent"
     fill="#000000"
     transform="matrix(0.0666667 0 0 0.0666667 -107.933 -195.467)"
     d="M 3373.23,3829.99 L 3375.11,3826.72 L 3378.89,3826.72 L 3475.14,3993.42 L 3473.25,3996.7 L 3469.47,3996.7 L 3373.23,3829.99 Z "
     id="path18" />
  <path
     stroke="transparent"
     fill="#000000"
     transform="matrix(0.0666667 0 0 0.0666667 -107.933 -195.467)"
     d="M 3469.47,3656.74 L 3473.25,3656.74 L 3475.14,3660.01 L 3378.89,3826.72 L 3375.11,3826.72 L 3373.23,3823.45 L 3469.47,3656.74 Z "
     id="path20" />
  <path
     stroke="transparent"
     fill="#000000"
     transform="matrix(0.0666667 0 0 0.0666667 -107.933 -195.467)"
     d="M 3484.02,3678.66 L 3489.68,3681.93 L 3405.14,3828.35 L 3399.48,3825.08 L 3484.02,3678.66 Z "
     id="path22" />
  <path
     stroke="transparent"
     fill="#000000"
     transform="matrix(0.0666667 0 0 0.0666667 -107.933 -195.467)"
     d="M 3671.41,3653.47 L 3667.63,3660.01 L 3475.14,3660.01 L 3473.25,3656.74 L 3475.14,3653.47 L 3671.41,3653.47 Z "
     id="path24" />
  <path
     stroke="transparent"
     fill="#000000"
     transform="matrix(0.0666667 0 0 0.0666667 -107.933 -195.467)"
     d="M 3771.44,3826.72 L 3763.88,3826.72 L 3667.63,3660.01 L 3671.41,3653.47 L 3771.44,3826.72 Z "
     id="path26" />
  <path
     stroke="transparent"
     fill="#000000"
     transform="matrix(0.0666667 0 0 0.0666667 -107.933 -195.467)"
     d="M 3743.3,3825.08 L 3737.63,3828.35 L 3653.09,3681.93 L 3658.76,3678.66 L 3743.3,3825.08 Z "
     id="path28" />
  <path
     stroke="transparent"
     fill="#000000"
     transform="matrix(0.0666667 0 0 0.0666667 -107.933 -195.467)"
     d="M 3695.9,3957.54 L 3690.24,3954.27 L 3763.88,3826.72 L 3771.44,3826.72 L 3695.9,3957.54 Z "
     id="path30" />
  <path
     stroke="transparent"
     fill="#000000"
     transform="matrix(0.0666667 0 0 0.0666667 -107.933 -195.467)"
     d="M 3636.94,3993.42 L 3636.94,3999.97 L 3475.14,3999.97 L 3473.25,3996.7 L 3475.14,3993.42 L 3636.94,3993.42 Z "
     id="path32" />
  <path
     stroke="transparent"
     fill="#000000"
     transform="matrix(0.0666667 0 0 0.0666667 -107.933 -195.467)"
     d="M 3396.14,4136.8 L 3390.47,4133.53 L 3469.47,3996.7 L 3473.25,3996.7 L 3475.14,3999.97 L 3396.14,4136.8 Z "
     id="path34" />
  <path
     stroke="transparent"
     fill="#000000"
     transform="matrix(0.0666667 0 0 0.0666667 -107.933 -195.467)"
     d="M 3416.53,4148.58 L 3410.87,4145.31 L 3484.02,4018.61 L 3489.68,4021.88 L 3416.53,4148.58 Z "
     id="path36" />
  <path
     stroke="transparent"
     fill="#000000"
     transform="matrix(0.0666667 0 0 0.0666667 -107.933 -195.467)"
     d="M 2882.55,3320.06 L 2886.32,3313.52 L 3078.82,3313.52 L 3080.71,3316.79 L 3078.82,3320.06 L 2882.55,3320.06 Z "
     id="path38" />
  <path
     stroke="transparent"
     fill="#000000"
     transform="matrix(0.0666667 0 0 0.0666667 -107.933 -195.467)"
     d="M 2782.52,3146.81 L 2790.08,3146.81 L 2886.32,3313.52 L 2882.55,3320.06 L 2782.52,3146.81 Z "
     id="path40" />
  <path
     stroke="transparent"
     fill="#000000"
     transform="matrix(0.0666667 0 0 0.0666667 -107.933 -195.467)"
     d="M 2810.66,3148.45 L 2816.33,3145.18 L 2900.87,3291.6 L 2895.2,3294.87 L 2810.66,3148.45 Z "
     id="path42" />
  <path
     stroke="transparent"
     fill="#000000"
     transform="matrix(0.0666667 0 0 0.0666667 -107.933 -195.467)"
     d="M 2882.55,2973.56 L 2886.32,2980.11 L 2790.08,3146.81 L 2782.52,3146.81 L 2882.55,2973.56 Z "
     id="path44" />
  <path
     stroke="transparent"
     fill="#000000"
     transform="matrix(0.0666667 0 0 0.0666667 -107.933 -195.467)"
     d="M 3082.6,2973.56 L 3078.82,2980.11 L 2886.32,2980.11 L 2882.55,2973.56 L 3082.6,2973.56 Z "
     id="path46" />
  <path
     stroke="transparent"
     fill="#000000"
     transform="matrix(0.0666667 0 0 0.0666667 -107.933 -195.467)"
     d="M 3067.11,2997.12 L 3067.11,3003.66 L 2898.03,3003.66 L 2898.03,2997.12 L 3067.11,2997.12 Z "
     id="path48" />
  <path
     stroke="transparent"
     fill="#000000"
     transform="matrix(0.0666667 0 0 0.0666667 -107.933 -195.467)"
     d="M 3160.88,3109.15 L 3155.21,3112.42 L 3078.82,2980.11 L 3082.6,2973.56 L 3160.88,3109.15 Z "
     id="path50" />
  <path
     stroke="transparent"
     fill="#000000"
     transform="matrix(0.0666667 0 0 0.0666667 -107.933 -195.467)"
     d="M 3154.06,3183.2 L 3159.72,3186.47 L 3084.48,3316.79 L 3080.71,3316.79 L 3078.82,3313.52 L 3154.06,3183.2 Z "
     id="path52" />
  <path
     stroke="transparent"
     fill="#000000"
     transform="matrix(0.0666667 0 0 0.0666667 -107.933 -195.467)"
     d="M 3133.66,3171.43 L 3139.32,3174.7 L 3069.94,3294.87 L 3064.28,3291.6 L 3133.66,3171.43 Z "
     id="path54" />
  <path
     stroke="transparent"
     fill="#000000"
     transform="matrix(0.0666667 0 0 0.0666667 -107.933 -195.467)"
     d="M 3078.82,3320.06 L 3080.71,3316.79 L 3084.48,3316.79 L 3180.73,3483.49 L 3176.95,3490.04 L 3078.82,3320.06 Z "
     id="path56" />
  <path
     stroke="transparent"
     fill="#000000"
     transform="matrix(0.0666667 0 0 0.0666667 -107.933 -195.467)"
     d="M 3176.95,3490.04 L 3180.73,3483.49 L 3340.53,3483.49 L 3340.53,3490.04 L 3176.95,3490.04 Z "
     id="path58" />
  <path
     stroke="transparent"
     fill="#000000"
     transform="matrix(0.0666667 0 0 0.0666667 -107.933 -195.467)"
     d="M 3394.3,3526.54 L 3399.97,3523.27 L 3475.14,3653.47 L 3473.25,3656.74 L 3469.47,3656.74 L 3394.3,3526.54 Z "
     id="path60" />
  <path
     stroke="transparent"
     fill="#000000"
     transform="matrix(0.0666667 0 0 0.0666667 -107.933 -195.467)"
     d="M 2877.19,3928.42 L 2876.81,3924.85 L 2880.08,3922.48 L 3028.04,3970.55 L 3026.02,3976.77 L 2877.19,3928.42 Z "
     id="path62" />
  <path
     stroke="transparent"
     fill="#000000"
     transform="matrix(0.0666667 0 0 0.0666667 -107.933 -195.467)"
     d="M 2873.54,3730.47 L 2876.81,3728.58 L 2880.08,3730.96 L 2880.08,3922.48 L 2876.81,3924.85 L 2873.54,3922.97 L 2873.54,3730.47 Z "
     id="path64" />
  <path
     stroke="transparent"
     fill="#000000"
     transform="matrix(0.0666667 0 0 0.0666667 -107.933 -195.467)"
     d="M 3025.53,3676.82 L 3027.55,3683.04 L 2880.08,3730.96 L 2876.81,3728.58 L 2877.19,3725.02 L 3025.53,3676.82 Z "
     id="path66" />
  <path
     stroke="transparent"
     fill="#000000"
     transform="matrix(0.0666667 0 0 0.0666667 -107.933 -195.467)"
     d="M 3086.14,3704.69 L 3091.43,3700.84 L 3180.51,3823.45 L 3178.84,3826.72 L 3174.8,3826.72 L 3086.14,3704.69 Z "
     id="path68" />
  <path
     stroke="transparent"
     fill="#000000"
     transform="matrix(0.0666667 0 0 0.0666667 -107.933 -195.467)"
     d="M 3067.08,3718.53 L 3072.38,3714.69 L 3152.38,3824.8 L 3147.08,3828.64 L 3067.08,3718.53 Z "
     id="path70" />
  <path
     stroke="transparent"
     fill="#000000"
     transform="matrix(0.0666667 0 0 0.0666667 -107.933 -195.467)"
     d="M 2536.86,3928.63 L 2536.86,3924.85 L 2540.13,3922.97 L 2706.83,4019.21 L 2706.83,4022.99 L 2703.56,4024.88 L 2536.86,3928.63 Z "
     id="path72" />
  <path
     stroke="transparent"
     fill="#000000"
     transform="matrix(0.0666667 0 0 0.0666667 -107.933 -195.467)"
     d="M 2533.59,3726.69 L 2540.13,3730.47 L 2540.13,3922.97 L 2536.86,3924.85 L 2533.59,3922.97 L 2533.59,3726.69 Z "
     id="path74" />
  <path
     stroke="transparent"
     fill="#000000"
     transform="matrix(0.0666667 0 0 0.0666667 -107.933 -195.467)"
     d="M 2557.14,3742.18 L 2563.68,3742.18 L 2563.68,3911.26 L 2557.14,3911.26 L 2557.14,3742.18 Z "
     id="path76" />
  <path
     stroke="transparent"
     fill="#000000"
     transform="matrix(0.0666667 0 0 0.0666667 -107.933 -195.467)"
     d="M 2706.83,3626.67 L 2706.83,3634.22 L 2540.13,3730.47 L 2533.59,3726.69 L 2706.83,3626.67 Z "
     id="path78" />
  <path
     stroke="transparent"
     fill="#000000"
     transform="matrix(0.0666667 0 0 0.0666667 -107.933 -195.467)"
     d="M 2877.19,3725.02 L 2876.81,3728.58 L 2873.54,3730.47 L 2706.83,3634.22 L 2706.83,3626.67 L 2877.19,3725.02 Z "
     id="path80" />
  <path
     stroke="transparent"
     fill="#000000"
     transform="matrix(0.0666667 0 0 0.0666667 -107.933 -195.467)"
     d="M 2854.89,3739.35 L 2851.62,3745.01 L 2705.2,3660.48 L 2708.47,3654.81 L 2854.89,3739.35 Z "
     id="path82" />
  <path
     stroke="transparent"
     fill="#000000"
     transform="matrix(0.0666667 0 0 0.0666667 -107.933 -195.467)"
     d="M 2873.54,3922.97 L 2876.81,3924.85 L 2877.19,3928.42 L 2710.11,4024.88 L 2706.83,4022.99 L 2706.83,4019.21 L 2873.54,3922.97 Z "
     id="path84" />
  <path
     stroke="transparent"
     fill="#000000"
     transform="matrix(0.0666667 0 0 0.0666667 -107.933 -195.467)"
     d="M 2851.62,3908.42 L 2854.89,3914.09 L 2708.47,3998.63 L 2705.2,3992.96 L 2851.62,3908.42 Z "
     id="path86" />
  <path
     stroke="transparent"
     fill="#000000"
     transform="matrix(0.0666667 0 0 0.0666667 -107.933 -195.467)"
     d="M 2188.6,4255.06 L 2187.24,4248.67 L 2343.36,4215.48 L 2349.37,4220.89 L 2188.6,4255.06 Z "
     id="path88" />
  <path
     stroke="transparent"
     fill="#000000"
     transform="matrix(0.0666667 0 0 0.0666667 -107.933 -195.467)"
     d="M 2183.71,4232.03 L 2182.35,4225.63 L 2324.05,4195.51 L 2325.41,4201.91 L 2183.71,4232.03 Z "
     id="path90" />
  <path
     stroke="transparent"
     fill="#000000"
     transform="matrix(0.0666667 0 0 0.0666667 -107.933 -195.467)"
     d="M 2052.23,4088.6 L 2060.27,4089.44 L 2136.42,4221.33 L 2130.75,4224.6 L 2052.23,4088.6 Z "
     id="path92" />
  <path
     stroke="transparent"
     fill="#000000"
     transform="matrix(0.0666667 0 0 0.0666667 -107.933 -195.467)"
     d="M 2186.74,3939.2 L 2188.42,3947.11 L 2060.27,4089.44 L 2052.23,4088.6 L 2186.74,3939.2 Z "
     id="path94" />
  <path
     stroke="transparent"
     fill="#000000"
     transform="matrix(0.0666667 0 0 0.0666667 -107.933 -195.467)"
     d="M 2191.2,3969.45 L 2196.06,3973.82 L 2087.63,4094.25 L 2082.77,4089.87 L 2191.2,3969.45 Z "
     id="path96" />
  <path
     stroke="transparent"
     fill="#000000"
     transform="matrix(0.0666667 0 0 0.0666667 -107.933 -195.467)"
     d="M 2331.93,4003.85 L 2329.27,4009.83 L 2188.42,3947.11 L 2186.74,3939.2 L 2331.93,4003.85 Z "
     id="path98" />
  <path
     stroke="transparent"
     fill="#000000"
     transform="matrix(0.0666667 0 0 0.0666667 -107.933 -195.467)"
     d="M 2359.73,4059.73 L 2366.24,4060.41 L 2349.37,4220.89 L 2343.36,4215.48 L 2359.73,4059.73 Z "
     id="path100" />
  <path
     stroke="transparent"
     fill="#000000"
     transform="matrix(0.0666667 0 0 0.0666667 -107.933 -195.467)"
     d="M 2402.36,4006.29 L 2399.08,4000.62 L 2533.59,3922.97 L 2536.86,3924.85 L 2536.86,3928.63 L 2402.36,4006.29 Z "
     id="path102" />
  <path
     stroke="transparent"
     fill="#000000"
     transform="matrix(0.0666667 0 0 0.0666667 -107.933 -195.467)"
     d="M 3180.51,3829.99 L 3178.84,3826.72 L 3180.51,3823.45 L 3373.23,3823.45 L 3375.11,3826.72 L 3373.23,3829.99 L 3180.51,3829.99 Z "
     id="path104" />
  <path
     stroke="#000000"
     stroke-width="7"
     fill="transparent"
     transform="matrix(0.0666667 0 0 0.0666667 -107.933 -195.467)"
     d="M 1677.2,4475.96 A 2405.18,2405.18 0 0 0 4082.38,4475.96"
     id="path106"
     style="fill:none" />
  <text
     x="0"
     y="0"
     stroke="transparent"
     fill="#000000"
     transform="matrix(0.0666667 0 0 0.0666667 156.826 113.371)"
     style="font:normal normal normal 78.5088px 'Times New Roman'"
     id="text108">
2OJ9</text>
  <text
     x="0"
     y="0"
     stroke="transparent"
     fill="#000000"
     transform="matrix(0.0666667 0 0 0.0666667 102.221 113.795)"
     style="font:normal normal normal 65.424px 'Arial'"
     id="text110">
Met</text>
  <text
     x="0"
     y="0"
     stroke="transparent"
     fill="#000000"
     transform="matrix(0.0666667 0 0 0.0666667 126.076 109.271)"
     style="font:normal normal normal 65.424px 'Arial'"
     id="text112">
Glu</text>
  <path
     stroke="transparent"
     fill="#000000"
     transform="matrix(0.0666667 0 0 0.0666667 -107.933 -195.467)"
     d="M 3096.04,3946.26 L 3090.74,3942.41 L 3174.8,3826.72 L 3178.84,3826.72 L 3180.51,3829.99 L 3096.04,3946.26 Z "
     id="path114" />
  <path
     stroke="transparent"
     fill="#000000"
     transform="matrix(0.0666667 0 0 0.0666667 -107.933 -195.467)"
     d="M 2710.11,4219.26 L 2703.56,4219.26 L 2703.56,4024.88 L 2706.83,4022.99 L 2710.11,4024.88 L 2710.11,4219.26 Z "
     id="path116" />
  <path
     stroke="transparent"
     fill="#0000ff"
     transform="matrix(0.0666667 0 0 0.0666667 -107.933 -195.467)"
     d="M 3175.13,4575.2 L 3168.69,4576.38 L 3165.43,4558.61 L 3171.86,4557.43 L 3175.13,4575.2 Z "
     id="path118" />
  <path
     stroke="transparent"
     fill="#0000ff"
     transform="matrix(0.0666667 0 0 0.0666667 -107.933 -195.467)"
     d="M 3168.6,4539.66 L 3162.16,4540.84 L 3158.9,4523.08 L 3165.34,4521.9 L 3168.6,4539.66 Z "
     id="path120" />
  <path
     stroke="transparent"
     fill="#0000ff"
     transform="matrix(0.0666667 0 0 0.0666667 -107.933 -195.467)"
     d="M 3162.07,4504.13 L 3155.64,4505.31 L 3152.37,4487.55 L 3158.81,4486.36 L 3162.07,4504.13 Z "
     id="path122" />
  <path
     stroke="transparent"
     fill="#0000ff"
     transform="matrix(0.0666667 0 0 0.0666667 -107.933 -195.467)"
     d="M 3155.54,4468.6 L 3149.11,4469.78 L 3145.85,4452.01 L 3152.28,4450.83 L 3155.54,4468.6 Z "
     id="path124" />
  <path
     stroke="transparent"
     fill="#0000ff"
     transform="matrix(0.0666667 0 0 0.0666667 -107.933 -195.467)"
     d="M 3149.02,4433.06 L 3142.58,4434.25 L 3139.32,4416.48 L 3145.75,4415.3 L 3149.02,4433.06 Z "
     id="path126" />
  <path
     stroke="transparent"
     fill="#0000ff"
     transform="matrix(0.0666667 0 0 0.0666667 -107.933 -195.467)"
     d="M 3142.49,4397.53 L 3136.06,4398.71 L 3132.79,4380.95 L 3139.23,4379.76 L 3142.49,4397.53 Z "
     id="path128" />
  <path
     stroke="transparent"
     fill="#0000ff"
     transform="matrix(0.0666667 0 0 0.0666667 -107.933 -195.467)"
     d="M 3135.96,4362 L 3129.53,4363.18 L 3126.26,4345.41 L 3132.7,4344.23 L 3135.96,4362 Z "
     id="path130" />
  <path
     stroke="transparent"
     fill="#0000ff"
     transform="matrix(0.0666667 0 0 0.0666667 -107.933 -195.467)"
     d="M 3129.44,4326.46 L 3123,4327.65 L 3119.74,4309.88 L 3126.17,4308.7 L 3129.44,4326.46 Z "
     id="path132" />
  <path
     stroke="transparent"
     fill="#0000ff"
     transform="matrix(0.0666667 0 0 0.0666667 -107.933 -195.467)"
     d="M 3122.91,4290.93 L 3116.47,4292.11 L 3113.21,4274.35 L 3119.64,4273.16 L 3122.91,4290.93 Z "
     id="path134" />
  <path
     stroke="transparent"
     fill="#0000ff"
     transform="matrix(0.0666667 0 0 0.0666667 -107.933 -195.467)"
     d="M 3116.38,4255.4 L 3109.95,4256.58 L 3106.68,4238.81 L 3113.12,4237.63 L 3116.38,4255.4 Z "
     id="path136" />
  <path
     stroke="transparent"
     fill="#0000ff"
     transform="matrix(0.0666667 0 0 0.0666667 -107.933 -195.467)"
     d="M 3109.85,4219.87 L 3103.42,4221.05 L 3100.16,4203.28 L 3106.59,4202.1 L 3109.85,4219.87 Z "
     id="path138" />
  <path
     stroke="transparent"
     fill="#0000ff"
     transform="matrix(0.0666667 0 0 0.0666667 -107.933 -195.467)"
     d="M 3103.33,4184.33 L 3096.89,4185.51 L 3093.63,4167.75 L 3100.06,4166.57 L 3103.33,4184.33 Z "
     id="path140" />
  <path
     stroke="transparent"
     fill="#0000ff"
     transform="matrix(0.0666667 0 0 0.0666667 -107.933 -195.467)"
     d="M 3096.8,4148.8 L 3090.36,4149.98 L 3087.1,4132.21 L 3093.54,4131.03 L 3096.8,4148.8 Z "
     id="path142" />
  <path
     stroke="transparent"
     fill="#0000ff"
     transform="matrix(0.0666667 0 0 0.0666667 -107.933 -195.467)"
     d="M 3090.27,4113.27 L 3083.84,4114.45 L 3080.57,4096.68 L 3087.01,4095.5 L 3090.27,4113.27 Z "
     id="path144" />
  <path
     stroke="transparent"
     fill="#0000ff"
     transform="matrix(0.0666667 0 0 0.0666667 -107.933 -195.467)"
     d="M 3083.74,4077.73 L 3077.31,4078.91 L 3074.05,4061.15 L 3080.48,4059.97 L 3083.74,4077.73 Z "
     id="path146" />
  <path
     stroke="transparent"
     fill="#0000ff"
     transform="matrix(0.0666667 0 0 0.0666667 -107.933 -195.467)"
     d="M 3077.22,4042.2 L 3070.78,4043.38 L 3067.52,4025.62 L 3073.95,4024.43 L 3077.22,4042.2 Z "
     id="path148" />
  <path
     stroke="transparent"
     fill="#0000ff"
     transform="matrix(0.0666667 0 0 0.0666667 -107.933 -195.467)"
     d="M 3543.81,4502.92 L 3537.94,4505.8 L 3530.11,4489.85 L 3535.98,4486.97 L 3543.81,4502.92 Z "
     id="path150" />
  <path
     stroke="transparent"
     fill="#0000ff"
     transform="matrix(0.0666667 0 0 0.0666667 -107.933 -195.467)"
     d="M 3528.15,4471.01 L 3522.28,4473.9 L 3514.45,4457.94 L 3520.32,4455.06 L 3528.15,4471.01 Z "
     id="path152" />
  <path
     stroke="transparent"
     fill="#0000ff"
     transform="matrix(0.0666667 0 0 0.0666667 -107.933 -195.467)"
     d="M 3512.49,4439.1 L 3506.62,4441.99 L 3498.78,4426.03 L 3504.66,4423.15 L 3512.49,4439.1 Z "
     id="path154" />
  <path
     stroke="transparent"
     fill="#0000ff"
     transform="matrix(0.0666667 0 0 0.0666667 -107.933 -195.467)"
     d="M 3496.83,4407.2 L 3490.95,4410.08 L 3483.12,4394.13 L 3488.99,4391.24 L 3496.83,4407.2 Z "
     id="path156" />
  <path
     stroke="transparent"
     fill="#0000ff"
     transform="matrix(0.0666667 0 0 0.0666667 -107.933 -195.467)"
     d="M 3481.16,4375.29 L 3475.29,4378.17 L 3467.46,4362.22 L 3473.33,4359.34 L 3481.16,4375.29 Z "
     id="path158" />
  <path
     stroke="transparent"
     fill="#0000ff"
     transform="matrix(0.0666667 0 0 0.0666667 -107.933 -195.467)"
     d="M 3465.5,4343.38 L 3459.63,4346.26 L 3451.8,4330.31 L 3457.67,4327.43 L 3465.5,4343.38 Z "
     id="path160" />
  <path
     stroke="transparent"
     fill="#0000ff"
     transform="matrix(0.0666667 0 0 0.0666667 -107.933 -195.467)"
     d="M 3449.84,4311.47 L 3443.97,4314.36 L 3436.13,4298.4 L 3442.01,4295.52 L 3449.84,4311.47 Z "
     id="path162" />
  <path
     stroke="transparent"
     fill="#0000ff"
     transform="matrix(0.0666667 0 0 0.0666667 -107.933 -195.467)"
     d="M 3434.18,4279.57 L 3428.3,4282.45 L 3420.47,4266.5 L 3426.34,4263.61 L 3434.18,4279.57 Z "
     id="path164" />
  <path
     stroke="transparent"
     fill="#0000ff"
     transform="matrix(0.0666667 0 0 0.0666667 -107.933 -195.467)"
     d="M 3418.51,4247.66 L 3412.64,4250.54 L 3404.81,4234.59 L 3410.68,4231.71 L 3418.51,4247.66 Z "
     id="path166" />
  <path
     stroke="transparent"
     fill="#0000ff"
     transform="matrix(0.0666667 0 0 0.0666667 -107.933 -195.467)"
     d="M 3402.85,4215.75 L 3396.98,4218.63 L 3389.15,4202.68 L 3395.02,4199.8 L 3402.85,4215.75 Z "
     id="path168" />
  <path
     stroke="transparent"
     fill="#0000ff"
     transform="matrix(0.0666667 0 0 0.0666667 -107.933 -195.467)"
     d="M 3571.28,4510.92 L 3564.86,4509.65 L 3568.32,4492.11 L 3574.74,4493.37 L 3571.28,4510.92 Z "
     id="path170" />
  <path
     stroke="transparent"
     fill="#0000ff"
     transform="matrix(0.0666667 0 0 0.0666667 -107.933 -195.467)"
     d="M 3578.21,4475.83 L 3571.79,4474.57 L 3575.25,4457.02 L 3581.67,4458.29 L 3578.21,4475.83 Z "
     id="path172" />
  <path
     stroke="transparent"
     fill="#0000ff"
     transform="matrix(0.0666667 0 0 0.0666667 -107.933 -195.467)"
     d="M 3585.14,4440.75 L 3578.72,4439.48 L 3582.19,4421.94 L 3588.6,4423.21 L 3585.14,4440.75 Z "
     id="path174" />
  <path
     stroke="transparent"
     fill="#0000ff"
     transform="matrix(0.0666667 0 0 0.0666667 -107.933 -195.467)"
     d="M 3592.07,4405.67 L 3585.65,4404.4 L 3589.12,4386.86 L 3595.53,4388.12 L 3592.07,4405.67 Z "
     id="path176" />
  <path
     stroke="transparent"
     fill="#0000ff"
     transform="matrix(0.0666667 0 0 0.0666667 -107.933 -195.467)"
     d="M 3599,4370.58 L 3592.58,4369.32 L 3596.05,4351.77 L 3602.46,4353.04 L 3599,4370.58 Z "
     id="path178" />
  <path
     stroke="transparent"
     fill="#0000ff"
     transform="matrix(0.0666667 0 0 0.0666667 -107.933 -195.467)"
     d="M 3605.93,4335.5 L 3599.51,4334.23 L 3602.98,4316.69 L 3609.39,4317.96 L 3605.93,4335.5 Z "
     id="path180" />
  <path
     stroke="transparent"
     fill="#0000ff"
     transform="matrix(0.0666667 0 0 0.0666667 -107.933 -195.467)"
     d="M 3612.86,4300.42 L 3606.44,4299.15 L 3609.91,4281.61 L 3616.32,4282.88 L 3612.86,4300.42 Z "
     id="path182" />
  <path
     stroke="transparent"
     fill="#0000ff"
     transform="matrix(0.0666667 0 0 0.0666667 -107.933 -195.467)"
     d="M 3619.79,4265.33 L 3613.37,4264.07 L 3616.84,4246.52 L 3623.26,4247.79 L 3619.79,4265.33 Z "
     id="path184" />
  <path
     stroke="transparent"
     fill="#0000ff"
     transform="matrix(0.0666667 0 0 0.0666667 -107.933 -195.467)"
     d="M 3626.72,4230.25 L 3620.3,4228.98 L 3623.77,4211.44 L 3630.19,4212.71 L 3626.72,4230.25 Z "
     id="path186" />
  <path
     stroke="transparent"
     fill="#0000ff"
     transform="matrix(0.0666667 0 0 0.0666667 -107.933 -195.467)"
     d="M 3633.65,4195.17 L 3627.23,4193.9 L 3630.7,4176.36 L 3637.12,4177.63 L 3633.65,4195.17 Z "
     id="path188" />
  <path
     stroke="transparent"
     fill="#0000ff"
     transform="matrix(0.0666667 0 0 0.0666667 -107.933 -195.467)"
     d="M 3640.58,4160.08 L 3634.16,4158.82 L 3637.63,4141.27 L 3644.05,4142.54 L 3640.58,4160.08 Z "
     id="path190" />
  <path
     stroke="transparent"
     fill="#0000ff"
     transform="matrix(0.0666667 0 0 0.0666667 -107.933 -195.467)"
     d="M 3647.51,4125 L 3641.09,4123.73 L 3644.56,4106.19 L 3650.98,4107.46 L 3647.51,4125 Z "
     id="path192" />
  <path
     stroke="transparent"
     fill="#0000ff"
     transform="matrix(0.0666667 0 0 0.0666667 -107.933 -195.467)"
     d="M 3654.44,4089.92 L 3648.02,4088.65 L 3651.49,4071.11 L 3657.91,4072.38 L 3654.44,4089.92 Z "
     id="path194" />
  <path
     stroke="transparent"
     fill="#0000ff"
     transform="matrix(0.0666667 0 0 0.0666667 -107.933 -195.467)"
     d="M 3661.37,4054.83 L 3654.95,4053.57 L 3658.42,4036.02 L 3664.84,4037.29 L 3661.37,4054.83 Z "
     id="path196" />
  <text
     x="0"
     y="0"
     stroke="transparent"
     fill="#000000"
     transform="matrix(0.0666667 0 0 0.0666667 28.1413 148.867)"
     style="font:normal normal bold 78.5088px 'Times New Roman'"
     id="text198">
Tautomer </text>
  <text
     x="0"
     y="0"
     stroke="transparent"
     fill="#000000"
     transform="matrix(0.0666667 0 0 0.0666667 51.8799 148.867)"
     style="font:normal normal bold 78.5088px 'Times New Roman'"
     id="text200">
A </text>
  <text
     x="0"
     y="0"
     stroke="transparent"
     fill="#000000"
     transform="matrix(0.0666667 0 0 0.0666667 56.993 148.867)"
     style="font:normal normal bold 78.5088px 'Times New Roman'"
     id="text202">
- </text>
  <text
     x="0"
     y="0"
     stroke="transparent"
     fill="#000000"
     transform="matrix(0.0666667 0 0 0.0666667 60.0692 148.867)"
     style="font:normal normal bold 78.5088px 'Times New Roman'"
     id="text204">
alternative </text>
  <text
     x="0"
     y="0"
     stroke="transparent"
     fill="#000000"
     transform="matrix(0.0666667 0 0 0.0666667 85.5835 148.867)"
     style="font:normal normal bold 78.5088px 'Times New Roman'"
     id="text206">
configuration </text>
  <text
     x="0"
     y="0"
     stroke="transparent"
     fill="#000000"
     transform="matrix(0.0666667 0 0 0.0666667 117.26 148.867)"
     style="font:normal normal bold 78.5088px 'Times New Roman'"
     id="text208">
(TAACON)</text>
  <text
     x="0"
     y="0"
     stroke="transparent"
     fill="#000000"
     transform="matrix(0.0666667 0 0 0.0666667 329.683 72.6797)"
     style="font:normal normal normal 65.424px 'Arial'"
     id="text210">
NH</text>
  <text
     x="0"
     y="0"
     stroke="transparent"
     fill="#000000"
     transform="matrix(0.0666667 0 0 0.0666667 309.923 84.0114)"
     style="font:normal normal normal 65.424px 'Arial'"
     id="text212">
O</text>
  <text
     x="0"
     y="0"
     stroke="transparent"
     fill="#ff0000"
     transform="matrix(0.0666667 0 0 0.0666667 310.189 38.6177)"
     style="font:normal normal bold 65.424px 'Arial'"
     id="text214">
X</text>
  <text
     x="0"
     y="0"
     stroke="transparent"
     fill="#000000"
     transform="matrix(0.0666667 0 0 0.0666667 296.971 16.0208)"
     style="font:normal normal normal 65.424px 'Arial'"
     id="text216">
N</text>
  <text
     x="0"
     y="0"
     stroke="transparent"
     fill="#000000"
     transform="matrix(0.0666667 0 0 0.0666667 289.28 71.9337)"
     style="font:normal normal normal 65.424px 'Arial'"
     id="text218">
N</text>
  <text
     x="0"
     y="0"
     stroke="transparent"
     fill="#000000"
     transform="matrix(0.0666667 0 0 0.0666667 289.28 46.0176)"
     style="font:normal normal normal 65.424px 'Arial'"
     id="text220">
H</text>
  <text
     x="0"
     y="0"
     stroke="transparent"
     fill="#000000"
     transform="matrix(0.0666667 0 0 0.0666667 289.28 50.7621)"
     style="font:normal normal normal 65.424px 'Arial'"
     id="text222">
N</text>
  <text
     x="0"
     y="0"
     stroke="transparent"
     fill="#000000"
     transform="matrix(0.0666667 0 0 0.0666667 228.674 90.1663)"
     style="font:normal normal normal 65.424px 'Arial'"
     id="text224">
N</text>
  <text
     x="0"
     y="0"
     stroke="transparent"
     fill="#000000"
     transform="matrix(0.0666667 0 0 0.0666667 242.84 74.4327)"
     style="font:normal normal normal 65.424px 'Arial'"
     id="text226">
N</text>
  <path
     stroke="transparent"
     fill="#000000"
     transform="matrix(0.0666667 0 0 0.0666667 -107.933 -195.467)"
     d="M 6291.45,3829.99 L 6293.34,3826.72 L 6297.12,3826.72 L 6393.36,3993.42 L 6389.59,3999.97 L 6291.45,3829.99 Z "
     id="path228" />
  <path
     stroke="transparent"
     fill="#000000"
     transform="matrix(0.0666667 0 0 0.0666667 -107.933 -195.467)"
     d="M 6387.7,3656.74 L 6391.48,3656.74 L 6393.36,3660.01 L 6297.12,3826.72 L 6293.34,3826.72 L 6291.45,3823.45 L 6387.7,3656.74 Z "
     id="path230" />
  <path
     stroke="transparent"
     fill="#000000"
     transform="matrix(0.0666667 0 0 0.0666667 -107.933 -195.467)"
     d="M 6402.24,3678.66 L 6407.91,3681.93 L 6323.37,3828.35 L 6317.7,3825.08 L 6402.24,3678.66 Z "
     id="path232" />
  <path
     stroke="transparent"
     fill="#000000"
     transform="matrix(0.0666667 0 0 0.0666667 -107.933 -195.467)"
     d="M 6589.64,3653.47 L 6585.86,3660.01 L 6393.36,3660.01 L 6391.48,3656.74 L 6393.36,3653.47 L 6589.64,3653.47 Z "
     id="path234" />
  <path
     stroke="transparent"
     fill="#000000"
     transform="matrix(0.0666667 0 0 0.0666667 -107.933 -195.467)"
     d="M 6689.66,3826.72 L 6682.11,3826.72 L 6585.86,3660.01 L 6589.64,3653.47 L 6689.66,3826.72 Z "
     id="path236" />
  <path
     stroke="transparent"
     fill="#000000"
     transform="matrix(0.0666667 0 0 0.0666667 -107.933 -195.467)"
     d="M 6661.52,3825.08 L 6655.85,3828.35 L 6571.32,3681.93 L 6576.98,3678.66 L 6661.52,3825.08 Z "
     id="path238" />
  <path
     stroke="transparent"
     fill="#000000"
     transform="matrix(0.0666667 0 0 0.0666667 -107.933 -195.467)"
     d="M 6614.13,3957.54 L 6608.46,3954.27 L 6682.11,3826.72 L 6689.66,3826.72 L 6614.13,3957.54 Z "
     id="path240" />
  <path
     stroke="transparent"
     fill="#000000"
     transform="matrix(0.0666667 0 0 0.0666667 -107.933 -195.467)"
     d="M 6555.16,3993.42 L 6555.16,3999.97 L 6389.59,3999.97 L 6393.36,3993.42 L 6555.16,3993.42 Z "
     id="path242" />
  <path
     stroke="transparent"
     fill="#000000"
     transform="matrix(0.0666667 0 0 0.0666667 -107.933 -195.467)"
     d="M 6324.56,4142.69 L 6318.89,4139.42 L 6402.24,3995.06 L 6407.91,3998.33 L 6324.56,4142.69 Z "
     id="path244" />
  <path
     stroke="transparent"
     fill="#000000"
     transform="matrix(0.0666667 0 0 0.0666667 -107.933 -195.467)"
     d="M 6304.16,4130.92 L 6298.5,4127.64 L 6381.84,3983.28 L 6387.51,3986.55 L 6304.16,4130.92 Z "
     id="path246" />
  <path
     stroke="transparent"
     fill="#000000"
     transform="matrix(0.0666667 0 0 0.0666667 -107.933 -195.467)"
     d="M 5800.77,3320.06 L 5804.55,3313.52 L 5997.04,3313.52 L 5998.93,3316.79 L 5997.04,3320.06 L 5800.77,3320.06 Z "
     id="path248" />
  <path
     stroke="transparent"
     fill="#000000"
     transform="matrix(0.0666667 0 0 0.0666667 -107.933 -195.467)"
     d="M 5700.75,3146.81 L 5708.3,3146.81 L 5804.55,3313.52 L 5800.77,3320.06 L 5700.75,3146.81 Z "
     id="path250" />
  <path
     stroke="transparent"
     fill="#000000"
     transform="matrix(0.0666667 0 0 0.0666667 -107.933 -195.467)"
     d="M 5728.89,3148.45 L 5734.55,3145.18 L 5819.09,3291.6 L 5813.42,3294.87 L 5728.89,3148.45 Z "
     id="path252" />
  <path
     stroke="transparent"
     fill="#000000"
     transform="matrix(0.0666667 0 0 0.0666667 -107.933 -195.467)"
     d="M 5800.77,2973.56 L 5804.55,2980.11 L 5708.3,3146.81 L 5700.75,3146.81 L 5800.77,2973.56 Z "
     id="path254" />
  <path
     stroke="transparent"
     fill="#000000"
     transform="matrix(0.0666667 0 0 0.0666667 -107.933 -195.467)"
     d="M 6000.82,2973.56 L 5997.04,2980.11 L 5804.55,2980.11 L 5800.77,2973.56 L 6000.82,2973.56 Z "
     id="path256" />
  <path
     stroke="transparent"
     fill="#000000"
     transform="matrix(0.0666667 0 0 0.0666667 -107.933 -195.467)"
     d="M 5985.33,2997.12 L 5985.33,3003.66 L 5816.26,3003.66 L 5816.26,2997.12 L 5985.33,2997.12 Z "
     id="path258" />
  <path
     stroke="transparent"
     fill="#000000"
     transform="matrix(0.0666667 0 0 0.0666667 -107.933 -195.467)"
     d="M 6079.1,3109.15 L 6073.44,3112.42 L 5997.04,2980.11 L 6000.82,2973.56 L 6079.1,3109.15 Z "
     id="path260" />
  <path
     stroke="transparent"
     fill="#000000"
     transform="matrix(0.0666667 0 0 0.0666667 -107.933 -195.467)"
     d="M 6072.28,3183.2 L 6077.95,3186.47 L 6002.71,3316.79 L 5998.93,3316.79 L 5997.04,3313.52 L 6072.28,3183.2 Z "
     id="path262" />
  <path
     stroke="transparent"
     fill="#000000"
     transform="matrix(0.0666667 0 0 0.0666667 -107.933 -195.467)"
     d="M 6051.88,3171.43 L 6057.55,3174.7 L 5988.17,3294.87 L 5982.5,3291.6 L 6051.88,3171.43 Z "
     id="path264" />
  <path
     stroke="transparent"
     fill="#000000"
     transform="matrix(0.0666667 0 0 0.0666667 -107.933 -195.467)"
     d="M 5997.04,3320.06 L 5998.93,3316.79 L 6002.71,3316.79 L 6098.96,3483.49 L 6095.18,3490.04 L 5997.04,3320.06 Z "
     id="path266" />
  <path
     stroke="transparent"
     fill="#000000"
     transform="matrix(0.0666667 0 0 0.0666667 -107.933 -195.467)"
     d="M 6095.18,3490.04 L 6098.96,3483.49 L 6258.75,3483.49 L 6258.75,3490.04 L 6095.18,3490.04 Z "
     id="path268" />
  <path
     stroke="transparent"
     fill="#000000"
     transform="matrix(0.0666667 0 0 0.0666667 -107.933 -195.467)"
     d="M 6312.53,3526.54 L 6318.19,3523.27 L 6393.36,3653.47 L 6391.48,3656.74 L 6387.7,3656.74 L 6312.53,3526.54 Z "
     id="path270" />
  <path
     stroke="transparent"
     fill="#000000"
     transform="matrix(0.0666667 0 0 0.0666667 -107.933 -195.467)"
     d="M 5795.41,3928.42 L 5795.04,3924.85 L 5798.31,3922.48 L 5946.26,3970.55 L 5944.24,3976.77 L 5795.41,3928.42 Z "
     id="path272" />
  <path
     stroke="transparent"
     fill="#000000"
     transform="matrix(0.0666667 0 0 0.0666667 -107.933 -195.467)"
     d="M 5791.76,3730.47 L 5795.04,3728.58 L 5798.31,3730.96 L 5798.31,3922.48 L 5795.04,3924.85 L 5791.76,3922.97 L 5791.76,3730.47 Z "
     id="path274" />
  <path
     stroke="transparent"
     fill="#000000"
     transform="matrix(0.0666667 0 0 0.0666667 -107.933 -195.467)"
     d="M 5943.8,3676.81 L 5945.82,3683.03 L 5798.31,3730.96 L 5795.04,3728.58 L 5795.41,3725.02 L 5943.8,3676.81 Z "
     id="path276" />
  <path
     stroke="transparent"
     fill="#000000"
     transform="matrix(0.0666667 0 0 0.0666667 -107.933 -195.467)"
     d="M 6004.28,3704.58 L 6009.58,3700.73 L 6098.73,3823.45 L 6097.07,3826.72 L 6093.02,3826.72 L 6004.28,3704.58 Z "
     id="path278" />
  <path
     stroke="transparent"
     fill="#000000"
     transform="matrix(0.0666667 0 0 0.0666667 -107.933 -195.467)"
     d="M 5455.08,3928.63 L 5455.08,3924.85 L 5458.35,3922.97 L 5625.06,4019.21 L 5625.06,4026.77 L 5455.08,3928.63 Z "
     id="path280" />
  <path
     stroke="transparent"
     fill="#000000"
     transform="matrix(0.0666667 0 0 0.0666667 -107.933 -195.467)"
     d="M 5451.81,3726.69 L 5458.35,3730.47 L 5458.35,3922.97 L 5455.08,3924.85 L 5451.81,3922.97 L 5451.81,3726.69 Z "
     id="path282" />
  <path
     stroke="transparent"
     fill="#000000"
     transform="matrix(0.0666667 0 0 0.0666667 -107.933 -195.467)"
     d="M 5475.36,3742.18 L 5481.91,3742.18 L 5481.91,3911.26 L 5475.36,3911.26 L 5475.36,3742.18 Z "
     id="path284" />
  <path
     stroke="transparent"
     fill="#000000"
     transform="matrix(0.0666667 0 0 0.0666667 -107.933 -195.467)"
     d="M 5621.79,3628.56 L 5625.06,3630.45 L 5625.06,3634.22 L 5458.35,3730.47 L 5451.81,3726.69 L 5621.79,3628.56 Z "
     id="path286" />
  <path
     stroke="transparent"
     fill="#000000"
     transform="matrix(0.0666667 0 0 0.0666667 -107.933 -195.467)"
     d="M 5795.41,3725.02 L 5795.04,3728.58 L 5791.76,3730.47 L 5625.06,3634.22 L 5625.06,3630.45 L 5628.33,3628.56 L 5795.41,3725.02 Z "
     id="path288" />
  <path
     stroke="transparent"
     fill="#000000"
     transform="matrix(0.0666667 0 0 0.0666667 -107.933 -195.467)"
     d="M 5773.12,3739.35 L 5769.85,3745.01 L 5623.42,3660.48 L 5626.7,3654.81 L 5773.12,3739.35 Z "
     id="path290" />
  <path
     stroke="transparent"
     fill="#000000"
     transform="matrix(0.0666667 0 0 0.0666667 -107.933 -195.467)"
     d="M 5791.76,3922.97 L 5795.04,3924.85 L 5795.41,3928.42 L 5625.06,4026.77 L 5625.06,4019.21 L 5791.76,3922.97 Z "
     id="path292" />
  <path
     stroke="transparent"
     fill="#000000"
     transform="matrix(0.0666667 0 0 0.0666667 -107.933 -195.467)"
     d="M 5769.85,3908.42 L 5773.12,3914.09 L 5626.7,3998.63 L 5623.42,3992.96 L 5769.85,3908.42 Z "
     id="path294" />
  <path
     stroke="transparent"
     fill="#000000"
     transform="matrix(0.0666667 0 0 0.0666667 -107.933 -195.467)"
     d="M 5106.83,4255.06 L 5105.47,4248.67 L 5261.59,4215.48 L 5267.6,4220.89 L 5106.83,4255.06 Z "
     id="path296" />
  <path
     stroke="transparent"
     fill="#000000"
     transform="matrix(0.0666667 0 0 0.0666667 -107.933 -195.467)"
     d="M 5101.93,4232.03 L 5100.57,4225.63 L 5242.28,4195.51 L 5243.64,4201.91 L 5101.93,4232.03 Z "
     id="path298" />
  <path
     stroke="transparent"
     fill="#000000"
     transform="matrix(0.0666667 0 0 0.0666667 -107.933 -195.467)"
     d="M 4970.45,4088.6 L 4978.49,4089.44 L 5054.64,4221.33 L 5048.98,4224.6 L 4970.45,4088.6 Z "
     id="path300" />
  <path
     stroke="transparent"
     fill="#000000"
     transform="matrix(0.0666667 0 0 0.0666667 -107.933 -195.467)"
     d="M 5104.96,3939.2 L 5106.64,3947.11 L 4978.49,4089.44 L 4970.45,4088.6 L 5104.96,3939.2 Z "
     id="path302" />
  <path
     stroke="transparent"
     fill="#000000"
     transform="matrix(0.0666667 0 0 0.0666667 -107.933 -195.467)"
     d="M 5109.42,3969.45 L 5114.29,3973.82 L 5005.86,4094.25 L 5000.99,4089.87 L 5109.42,3969.45 Z "
     id="path304" />
  <path
     stroke="transparent"
     fill="#000000"
     transform="matrix(0.0666667 0 0 0.0666667 -107.933 -195.467)"
     d="M 5250.16,4003.85 L 5247.5,4009.83 L 5106.64,3947.11 L 5104.96,3939.2 L 5250.16,4003.85 Z "
     id="path306" />
  <path
     stroke="transparent"
     fill="#000000"
     transform="matrix(0.0666667 0 0 0.0666667 -107.933 -195.467)"
     d="M 5277.96,4059.73 L 5284.46,4060.41 L 5267.6,4220.89 L 5261.59,4215.48 L 5277.96,4059.73 Z "
     id="path308" />
  <path
     stroke="transparent"
     fill="#000000"
     transform="matrix(0.0666667 0 0 0.0666667 -107.933 -195.467)"
     d="M 5320.58,4006.29 L 5317.31,4000.62 L 5451.81,3922.97 L 5455.08,3924.85 L 5455.08,3928.63 L 5320.58,4006.29 Z "
     id="path310" />
  <path
     stroke="transparent"
     fill="#000000"
     transform="matrix(0.0666667 0 0 0.0666667 -107.933 -195.467)"
     d="M 6098.73,3829.99 L 6097.07,3826.72 L 6098.73,3823.45 L 6291.45,3823.45 L 6293.34,3826.72 L 6291.45,3829.99 L 6098.73,3829.99 Z "
     id="path312" />
  <path
     stroke="#000000"
     stroke-width="7"
     fill="transparent"
     transform="matrix(0.0666667 0 0 0.0666667 -107.933 -195.467)"
     d="M 4595.43,4475.96 A 2405.18,2405.18 0 0 0 7000.61,4475.96"
     id="path314"
     style="fill:none" />
  <text
     x="0"
     y="0"
     stroke="transparent"
     fill="#000000"
     transform="matrix(0.0666667 0 0 0.0666667 351.374 113.371)"
     style="font:normal normal normal 78px 'Times New Roman'"
     id="text316">
2OJ9</text>
  <text
     x="0"
     y="0"
     stroke="transparent"
     fill="#000000"
     transform="matrix(0.0666667 0 0 0.0666667 291.866 113.795)"
     style="font:normal normal normal 65.424px 'Arial'"
     id="text318">
Met</text>
  <text
     x="0"
     y="0"
     stroke="transparent"
     fill="#000000"
     transform="matrix(0.0666667 0 0 0.0666667 318.427 109.271)"
     style="font:normal normal normal 65.424px 'Arial'"
     id="text320">
Glu</text>
  <path
     stroke="transparent"
     fill="#000000"
     transform="matrix(0.0666667 0 0 0.0666667 -107.933 -195.467)"
     d="M 6008.39,3954.34 L 6003.1,3950.49 L 6093.02,3826.72 L 6097.07,3826.72 L 6098.73,3829.99 L 6008.39,3954.34 Z "
     id="path322" />
  <path
     stroke="transparent"
     fill="#000000"
     transform="matrix(0.0666667 0 0 0.0666667 -107.933 -195.467)"
     d="M 5989.33,3940.5 L 5984.04,3936.65 L 6065.31,3824.8 L 6070.6,3828.64 L 5989.33,3940.5 Z "
     id="path324" />
  <path
     stroke="transparent"
     fill="#0000ff"
     transform="matrix(0.0666667 0 0 0.0666667 -107.933 -195.467)"
     d="M 6487.11,4523.04 L 6480.69,4521.77 L 6484,4505.02 L 6490.42,4506.29 L 6487.11,4523.04 Z "
     id="path326" />
  <path
     stroke="transparent"
     fill="#0000ff"
     transform="matrix(0.0666667 0 0 0.0666667 -107.933 -195.467)"
     d="M 6493.73,4489.54 L 6487.31,4488.27 L 6490.62,4471.52 L 6497.03,4472.79 L 6493.73,4489.54 Z "
     id="path328" />
  <path
     stroke="transparent"
     fill="#0000ff"
     transform="matrix(0.0666667 0 0 0.0666667 -107.933 -195.467)"
     d="M 6500.34,4456.04 L 6493.92,4454.77 L 6497.23,4438.02 L 6503.65,4439.29 L 6500.34,4456.04 Z "
     id="path330" />
  <path
     stroke="transparent"
     fill="#0000ff"
     transform="matrix(0.0666667 0 0 0.0666667 -107.933 -195.467)"
     d="M 6506.96,4422.54 L 6500.54,4421.27 L 6503.85,4404.52 L 6510.27,4405.79 L 6506.96,4422.54 Z "
     id="path332" />
  <path
     stroke="transparent"
     fill="#0000ff"
     transform="matrix(0.0666667 0 0 0.0666667 -107.933 -195.467)"
     d="M 6513.58,4389.04 L 6507.16,4387.77 L 6510.47,4371.02 L 6516.89,4372.29 L 6513.58,4389.04 Z "
     id="path334" />
  <path
     stroke="transparent"
     fill="#0000ff"
     transform="matrix(0.0666667 0 0 0.0666667 -107.933 -195.467)"
     d="M 6520.2,4355.54 L 6513.78,4354.27 L 6517.09,4337.52 L 6523.5,4338.79 L 6520.2,4355.54 Z "
     id="path336" />
  <path
     stroke="transparent"
     fill="#0000ff"
     transform="matrix(0.0666667 0 0 0.0666667 -107.933 -195.467)"
     d="M 6526.81,4322.04 L 6520.39,4320.77 L 6523.7,4304.02 L 6530.12,4305.29 L 6526.81,4322.04 Z "
     id="path338" />
  <path
     stroke="transparent"
     fill="#0000ff"
     transform="matrix(0.0666667 0 0 0.0666667 -107.933 -195.467)"
     d="M 6533.43,4288.54 L 6527.01,4287.27 L 6530.32,4270.52 L 6536.74,4271.79 L 6533.43,4288.54 Z "
     id="path340" />
  <path
     stroke="transparent"
     fill="#0000ff"
     transform="matrix(0.0666667 0 0 0.0666667 -107.933 -195.467)"
     d="M 6540.05,4255.04 L 6533.63,4253.77 L 6536.94,4237.02 L 6543.36,4238.29 L 6540.05,4255.04 Z "
     id="path342" />
  <path
     stroke="transparent"
     fill="#0000ff"
     transform="matrix(0.0666667 0 0 0.0666667 -107.933 -195.467)"
     d="M 6546.67,4221.54 L 6540.25,4220.27 L 6543.56,4203.52 L 6549.97,4204.79 L 6546.67,4221.54 Z "
     id="path344" />
  <path
     stroke="transparent"
     fill="#0000ff"
     transform="matrix(0.0666667 0 0 0.0666667 -107.933 -195.467)"
     d="M 6553.28,4188.04 L 6546.87,4186.77 L 6550.17,4170.02 L 6556.59,4171.29 L 6553.28,4188.04 Z "
     id="path346" />
  <path
     stroke="transparent"
     fill="#0000ff"
     transform="matrix(0.0666667 0 0 0.0666667 -107.933 -195.467)"
     d="M 6559.9,4154.54 L 6553.48,4153.27 L 6556.79,4136.52 L 6563.21,4137.79 L 6559.9,4154.54 Z "
     id="path348" />
  <path
     stroke="transparent"
     fill="#0000ff"
     transform="matrix(0.0666667 0 0 0.0666667 -107.933 -195.467)"
     d="M 6566.52,4121.04 L 6560.1,4119.77 L 6563.41,4103.02 L 6569.83,4104.29 L 6566.52,4121.04 Z "
     id="path350" />
  <path
     stroke="transparent"
     fill="#0000ff"
     transform="matrix(0.0666667 0 0 0.0666667 -107.933 -195.467)"
     d="M 6573.14,4087.54 L 6566.72,4086.27 L 6570.03,4069.52 L 6576.44,4070.79 L 6573.14,4087.54 Z "
     id="path352" />
  <path
     stroke="transparent"
     fill="#0000ff"
     transform="matrix(0.0666667 0 0 0.0666667 -107.933 -195.467)"
     d="M 6579.75,4054.04 L 6573.34,4052.77 L 6576.64,4036.02 L 6583.06,4037.29 L 6579.75,4054.04 Z "
     id="path354" />
  <text
     x="0"
     y="0"
     stroke="transparent"
     fill="#000000"
     transform="matrix(0.0666667 0 0 0.0666667 230.352 148.867)"
     style="font:normal normal bold 78px 'Times New Roman'"
     id="text356">
Tautomer </text>
  <text
     x="0"
     y="0"
     stroke="transparent"
     fill="#000000"
     transform="matrix(0.0666667 0 0 0.0666667 253.978 148.867)"
     style="font:normal normal bold 78px 'Times New Roman'"
     id="text358">
A </text>
  <text
     x="0"
     y="0"
     stroke="transparent"
     fill="#000000"
     transform="matrix(0.0666667 0 0 0.0666667 259.066 148.867)"
     style="font:normal normal bold 78px 'Times New Roman'"
     id="text360">
- </text>
  <text
     x="0"
     y="0"
     stroke="transparent"
     fill="#000000"
     transform="matrix(0.0666667 0 0 0.0666667 262.133 148.867)"
     style="font:normal normal bold 78px 'Times New Roman'"
     id="text362">
PDB </text>
  <text
     x="0"
     y="0"
     stroke="transparent"
     fill="#000000"
     transform="matrix(0.0666667 0 0 0.0666667 273.866 148.867)"
     style="font:normal normal bold 78px 'Times New Roman'"
     id="text364">
configuration </text>
  <text
     x="0"
     y="0"
     stroke="transparent"
     fill="#000000"
     transform="matrix(0.0666667 0 0 0.0666667 305.409 148.867)"
     style="font:normal normal bold 78px 'Times New Roman'"
     id="text366">
(TAAPDB)</text>
  <text
     x="0"
     y="0"
     stroke="transparent"
     fill="#000000"
     transform="matrix(0.0666667 0 0 0.0666667 524.173 72.6797)"
     style="font:normal normal normal 65.424px 'Arial'"
     id="text368">
NH</text>
  <text
     x="0"
     y="0"
     stroke="transparent"
     fill="#000000"
     transform="matrix(0.0666667 0 0 0.0666667 504.413 84.0114)"
     style="font:normal normal normal 65.424px 'Arial'"
     id="text370">
O</text>
  <text
     x="0"
     y="0"
     stroke="transparent"
     fill="#ff0000"
     transform="matrix(0.0666667 0 0 0.0666667 504.679 38.6177)"
     style="font:normal normal bold 65.424px 'Arial'"
     id="text372">
X</text>
  <text
     x="0"
     y="0"
     stroke="transparent"
     fill="#000000"
     transform="matrix(0.0666667 0 0 0.0666667 491.461 16.0208)"
     style="font:normal normal normal 65.424px 'Arial'"
     id="text374">
N</text>
  <text
     x="0"
     y="0"
     stroke="transparent"
     fill="#000000"
     transform="matrix(0.0666667 0 0 0.0666667 483.77 71.9337)"
     style="font:normal normal normal 65.424px 'Arial'"
     id="text376">
N</text>
  <text
     x="0"
     y="0"
     stroke="transparent"
     fill="#000000"
     transform="matrix(0.0666667 0 0 0.0666667 483.77 50.7621)"
     style="font:normal normal normal 65.424px 'Arial'"
     id="text378">
N</text>
  <text
     x="0"
     y="0"
     stroke="transparent"
     fill="#000000"
     transform="matrix(0.0666667 0 0 0.0666667 423.164 90.1663)"
     style="font:normal normal normal 65.424px 'Arial'"
     id="text380">
N</text>
  <text
     x="0"
     y="0"
     stroke="transparent"
     fill="#000000"
     transform="matrix(0.0666667 0 0 0.0666667 437.33 74.4327)"
     style="font:normal normal normal 65.424px 'Arial'"
     id="text382">
N</text>
  <path
     stroke="transparent"
     fill="#000000"
     transform="matrix(0.0666667 0 0 0.0666667 -107.933 -195.467)"
     d="M 9208.8,3829.99 L 9210.69,3826.72 L 9214.47,3826.72 L 9310.71,3993.42 L 9306.94,3999.97 L 9208.8,3829.99 Z "
     id="path384" />
  <path
     stroke="transparent"
     fill="#000000"
     transform="matrix(0.0666667 0 0 0.0666667 -107.933 -195.467)"
     d="M 9305.05,3656.74 L 9308.82,3656.74 L 9310.71,3660.01 L 9214.47,3826.72 L 9210.69,3826.72 L 9208.8,3823.45 L 9305.05,3656.74 Z "
     id="path386" />
  <path
     stroke="transparent"
     fill="#000000"
     transform="matrix(0.0666667 0 0 0.0666667 -107.933 -195.467)"
     d="M 9319.59,3678.66 L 9325.26,3681.93 L 9240.72,3828.35 L 9235.05,3825.08 L 9319.59,3678.66 Z "
     id="path388" />
  <path
     stroke="transparent"
     fill="#000000"
     transform="matrix(0.0666667 0 0 0.0666667 -107.933 -195.467)"
     d="M 9506.99,3653.47 L 9503.21,3660.01 L 9310.71,3660.01 L 9308.82,3656.74 L 9310.71,3653.47 L 9506.99,3653.47 Z "
     id="path390" />
  <path
     stroke="transparent"
     fill="#000000"
     transform="matrix(0.0666667 0 0 0.0666667 -107.933 -195.467)"
     d="M 9607.01,3826.72 L 9599.46,3826.72 L 9503.21,3660.01 L 9506.99,3653.47 L 9607.01,3826.72 Z "
     id="path392" />
  <path
     stroke="transparent"
     fill="#000000"
     transform="matrix(0.0666667 0 0 0.0666667 -107.933 -195.467)"
     d="M 9578.87,3825.08 L 9573.2,3828.35 L 9488.67,3681.93 L 9494.33,3678.66 L 9578.87,3825.08 Z "
     id="path394" />
  <path
     stroke="transparent"
     fill="#000000"
     transform="matrix(0.0666667 0 0 0.0666667 -107.933 -195.467)"
     d="M 9531.48,3957.54 L 9525.81,3954.27 L 9599.46,3826.72 L 9607.01,3826.72 L 9531.48,3957.54 Z "
     id="path396" />
  <path
     stroke="transparent"
     fill="#000000"
     transform="matrix(0.0666667 0 0 0.0666667 -107.933 -195.467)"
     d="M 9472.51,3993.42 L 9472.51,3999.97 L 9306.94,3999.97 L 9310.71,3993.42 L 9472.51,3993.42 Z "
     id="path398" />
  <path
     stroke="transparent"
     fill="#000000"
     transform="matrix(0.0666667 0 0 0.0666667 -107.933 -195.467)"
     d="M 9241.91,4142.69 L 9236.24,4139.42 L 9319.59,3995.06 L 9325.26,3998.33 L 9241.91,4142.69 Z "
     id="path400" />
  <path
     stroke="transparent"
     fill="#000000"
     transform="matrix(0.0666667 0 0 0.0666667 -107.933 -195.467)"
     d="M 9221.51,4130.92 L 9215.85,4127.64 L 9299.19,3983.28 L 9304.86,3986.55 L 9221.51,4130.92 Z "
     id="path402" />
  <path
     stroke="transparent"
     fill="#000000"
     transform="matrix(0.0666667 0 0 0.0666667 -107.933 -195.467)"
     d="M 8718.12,3320.06 L 8721.9,3313.52 L 8914.39,3313.52 L 8916.28,3316.79 L 8914.39,3320.06 L 8718.12,3320.06 Z "
     id="path404" />
  <path
     stroke="transparent"
     fill="#000000"
     transform="matrix(0.0666667 0 0 0.0666667 -107.933 -195.467)"
     d="M 8618.1,3146.81 L 8625.65,3146.81 L 8721.9,3313.52 L 8718.12,3320.06 L 8618.1,3146.81 Z "
     id="path406" />
  <path
     stroke="transparent"
     fill="#000000"
     transform="matrix(0.0666667 0 0 0.0666667 -107.933 -195.467)"
     d="M 8646.24,3148.45 L 8651.9,3145.18 L 8736.44,3291.6 L 8730.77,3294.87 L 8646.24,3148.45 Z "
     id="path408" />
  <path
     stroke="transparent"
     fill="#000000"
     transform="matrix(0.0666667 0 0 0.0666667 -107.933 -195.467)"
     d="M 8718.12,2973.56 L 8721.9,2980.11 L 8625.65,3146.81 L 8618.1,3146.81 L 8718.12,2973.56 Z "
     id="path410" />
  <path
     stroke="transparent"
     fill="#000000"
     transform="matrix(0.0666667 0 0 0.0666667 -107.933 -195.467)"
     d="M 8918.17,2973.56 L 8914.39,2980.11 L 8721.9,2980.11 L 8718.12,2973.56 L 8918.17,2973.56 Z "
     id="path412" />
  <path
     stroke="transparent"
     fill="#000000"
     transform="matrix(0.0666667 0 0 0.0666667 -107.933 -195.467)"
     d="M 8902.68,2997.12 L 8902.68,3003.66 L 8733.61,3003.66 L 8733.61,2997.12 L 8902.68,2997.12 Z "
     id="path414" />
  <path
     stroke="transparent"
     fill="#000000"
     transform="matrix(0.0666667 0 0 0.0666667 -107.933 -195.467)"
     d="M 8996.45,3109.15 L 8990.78,3112.42 L 8914.39,2980.11 L 8918.17,2973.56 L 8996.45,3109.15 Z "
     id="path416" />
  <path
     stroke="transparent"
     fill="#000000"
     transform="matrix(0.0666667 0 0 0.0666667 -107.933 -195.467)"
     d="M 8989.63,3183.2 L 8995.3,3186.47 L 8920.06,3316.79 L 8916.28,3316.79 L 8914.39,3313.52 L 8989.63,3183.2 Z "
     id="path418" />
  <path
     stroke="transparent"
     fill="#000000"
     transform="matrix(0.0666667 0 0 0.0666667 -107.933 -195.467)"
     d="M 8969.23,3171.43 L 8974.9,3174.7 L 8905.52,3294.87 L 8899.85,3291.6 L 8969.23,3171.43 Z "
     id="path420" />
  <path
     stroke="transparent"
     fill="#000000"
     transform="matrix(0.0666667 0 0 0.0666667 -107.933 -195.467)"
     d="M 8914.39,3320.06 L 8916.28,3316.79 L 8920.06,3316.79 L 9016.31,3483.49 L 9012.53,3490.04 L 8914.39,3320.06 Z "
     id="path422" />
  <path
     stroke="transparent"
     fill="#000000"
     transform="matrix(0.0666667 0 0 0.0666667 -107.933 -195.467)"
     d="M 9012.53,3490.04 L 9016.31,3483.49 L 9176.1,3483.49 L 9176.1,3490.04 L 9012.53,3490.04 Z "
     id="path424" />
  <path
     stroke="transparent"
     fill="#000000"
     transform="matrix(0.0666667 0 0 0.0666667 -107.933 -195.467)"
     d="M 9229.88,3526.54 L 9235.54,3523.27 L 9310.71,3653.47 L 9308.82,3656.74 L 9305.05,3656.74 L 9229.88,3526.54 Z "
     id="path426" />
  <path
     stroke="transparent"
     fill="#000000"
     transform="matrix(0.0666667 0 0 0.0666667 -107.933 -195.467)"
     d="M 8712.76,3928.42 L 8712.39,3924.85 L 8715.66,3922.48 L 8863.61,3970.55 L 8861.59,3976.77 L 8712.76,3928.42 Z "
     id="path428" />
  <path
     stroke="transparent"
     fill="#000000"
     transform="matrix(0.0666667 0 0 0.0666667 -107.933 -195.467)"
     d="M 8709.11,3730.47 L 8712.39,3728.58 L 8715.66,3730.96 L 8715.66,3922.48 L 8712.39,3924.85 L 8709.11,3922.97 L 8709.11,3730.47 Z "
     id="path430" />
  <path
     stroke="transparent"
     fill="#000000"
     transform="matrix(0.0666667 0 0 0.0666667 -107.933 -195.467)"
     d="M 8861.1,3676.82 L 8863.12,3683.04 L 8715.66,3730.96 L 8712.39,3728.58 L 8712.76,3725.02 L 8861.1,3676.82 Z "
     id="path432" />
  <path
     stroke="transparent"
     fill="#000000"
     transform="matrix(0.0666667 0 0 0.0666667 -107.933 -195.467)"
     d="M 8921.71,3704.69 L 8927.01,3700.84 L 9016.08,3823.45 L 9014.42,3826.72 L 9010.37,3826.72 L 8921.71,3704.69 Z "
     id="path434" />
  <path
     stroke="transparent"
     fill="#000000"
     transform="matrix(0.0666667 0 0 0.0666667 -107.933 -195.467)"
     d="M 8902.66,3718.53 L 8907.95,3714.69 L 8987.95,3824.8 L 8982.66,3828.64 L 8902.66,3718.53 Z "
     id="path436" />
  <path
     stroke="transparent"
     fill="#000000"
     transform="matrix(0.0666667 0 0 0.0666667 -107.933 -195.467)"
     d="M 8372.43,3928.63 L 8372.43,3924.85 L 8375.7,3922.97 L 8542.41,4019.21 L 8542.41,4026.77 L 8372.43,3928.63 Z "
     id="path438" />
  <path
     stroke="transparent"
     fill="#000000"
     transform="matrix(0.0666667 0 0 0.0666667 -107.933 -195.467)"
     d="M 8369.16,3726.69 L 8375.7,3730.47 L 8375.7,3922.97 L 8372.43,3924.85 L 8369.16,3922.97 L 8369.16,3726.69 Z "
     id="path440" />
  <path
     stroke="transparent"
     fill="#000000"
     transform="matrix(0.0666667 0 0 0.0666667 -107.933 -195.467)"
     d="M 8392.71,3742.18 L 8399.26,3742.18 L 8399.26,3911.26 L 8392.71,3911.26 L 8392.71,3742.18 Z "
     id="path442" />
  <path
     stroke="transparent"
     fill="#000000"
     transform="matrix(0.0666667 0 0 0.0666667 -107.933 -195.467)"
     d="M 8539.14,3628.56 L 8542.41,3630.45 L 8542.41,3634.22 L 8375.7,3730.47 L 8369.16,3726.69 L 8539.14,3628.56 Z "
     id="path444" />
  <path
     stroke="transparent"
     fill="#000000"
     transform="matrix(0.0666667 0 0 0.0666667 -107.933 -195.467)"
     d="M 8712.76,3725.02 L 8712.39,3728.58 L 8709.11,3730.47 L 8542.41,3634.22 L 8542.41,3630.45 L 8545.68,3628.56 L 8712.76,3725.02 Z "
     id="path446" />
  <path
     stroke="transparent"
     fill="#000000"
     transform="matrix(0.0666667 0 0 0.0666667 -107.933 -195.467)"
     d="M 8690.47,3739.35 L 8687.2,3745.01 L 8540.77,3660.48 L 8544.04,3654.81 L 8690.47,3739.35 Z "
     id="path448" />
  <path
     stroke="transparent"
     fill="#000000"
     transform="matrix(0.0666667 0 0 0.0666667 -107.933 -195.467)"
     d="M 8709.11,3922.97 L 8712.39,3924.85 L 8712.76,3928.42 L 8542.41,4026.77 L 8542.41,4019.21 L 8709.11,3922.97 Z "
     id="path450" />
  <path
     stroke="transparent"
     fill="#000000"
     transform="matrix(0.0666667 0 0 0.0666667 -107.933 -195.467)"
     d="M 8687.2,3908.42 L 8690.47,3914.09 L 8544.04,3998.63 L 8540.77,3992.96 L 8687.2,3908.42 Z "
     id="path452" />
  <path
     stroke="transparent"
     fill="#000000"
     transform="matrix(0.0666667 0 0 0.0666667 -107.933 -195.467)"
     d="M 8024.18,4255.06 L 8022.82,4248.67 L 8178.93,4215.48 L 8184.94,4220.89 L 8024.18,4255.06 Z "
     id="path454" />
  <path
     stroke="transparent"
     fill="#000000"
     transform="matrix(0.0666667 0 0 0.0666667 -107.933 -195.467)"
     d="M 8019.28,4232.03 L 8017.92,4225.63 L 8159.62,4195.51 L 8160.98,4201.91 L 8019.28,4232.03 Z "
     id="path456" />
  <path
     stroke="transparent"
     fill="#000000"
     transform="matrix(0.0666667 0 0 0.0666667 -107.933 -195.467)"
     d="M 7887.8,4088.6 L 7895.84,4089.44 L 7971.99,4221.33 L 7966.32,4224.6 L 7887.8,4088.6 Z "
     id="path458" />
  <path
     stroke="transparent"
     fill="#000000"
     transform="matrix(0.0666667 0 0 0.0666667 -107.933 -195.467)"
     d="M 8022.31,3939.2 L 8023.99,3947.11 L 7895.84,4089.44 L 7887.8,4088.6 L 8022.31,3939.2 Z "
     id="path460" />
  <path
     stroke="transparent"
     fill="#000000"
     transform="matrix(0.0666667 0 0 0.0666667 -107.933 -195.467)"
     d="M 8026.77,3969.45 L 8031.64,3973.82 L 7923.2,4094.25 L 7918.34,4089.87 L 8026.77,3969.45 Z "
     id="path462" />
  <path
     stroke="transparent"
     fill="#000000"
     transform="matrix(0.0666667 0 0 0.0666667 -107.933 -195.467)"
     d="M 8167.51,4003.85 L 8164.85,4009.83 L 8023.99,3947.11 L 8022.31,3939.2 L 8167.51,4003.85 Z "
     id="path464" />
  <path
     stroke="transparent"
     fill="#000000"
     transform="matrix(0.0666667 0 0 0.0666667 -107.933 -195.467)"
     d="M 8195.3,4059.73 L 8201.81,4060.41 L 8184.94,4220.89 L 8178.93,4215.48 L 8195.3,4059.73 Z "
     id="path466" />
  <path
     stroke="transparent"
     fill="#000000"
     transform="matrix(0.0666667 0 0 0.0666667 -107.933 -195.467)"
     d="M 8237.93,4006.29 L 8234.66,4000.62 L 8369.16,3922.97 L 8372.43,3924.85 L 8372.43,3928.63 L 8237.93,4006.29 Z "
     id="path468" />
  <path
     stroke="transparent"
     fill="#000000"
     transform="matrix(0.0666667 0 0 0.0666667 -107.933 -195.467)"
     d="M 9016.08,3829.99 L 9014.42,3826.72 L 9016.08,3823.45 L 9208.8,3823.45 L 9210.69,3826.72 L 9208.8,3829.99 L 9016.08,3829.99 Z "
     id="path470" />
  <path
     stroke="#000000"
     stroke-width="7"
     fill="transparent"
     transform="matrix(0.0666667 0 0 0.0666667 -107.933 -195.467)"
     d="M 7512.78,4475.96 A 2405.18,2405.18 0 0 0 9917.96,4475.96"
     id="path472"
     style="fill:none" />
  <text
     x="0"
     y="0"
     stroke="transparent"
     fill="#000000"
     transform="matrix(0.0666667 0 0 0.0666667 545.864 113.371)"
     style="font:normal normal normal 78px 'Times New Roman'"
     id="text474">
2OJ9</text>
  <text
     x="0"
     y="0"
     stroke="transparent"
     fill="#000000"
     transform="matrix(0.0666667 0 0 0.0666667 489.391 113.795)"
     style="font:normal normal normal 65.424px 'Arial'"
     id="text476">
Met</text>
  <text
     x="0"
     y="0"
     stroke="transparent"
     fill="#000000"
     transform="matrix(0.0666667 0 0 0.0666667 512.917 109.271)"
     style="font:normal normal normal 65.424px 'Arial'"
     id="text478">
Glu</text>
  <path
     stroke="transparent"
     fill="#000000"
     transform="matrix(0.0666667 0 0 0.0666667 -107.933 -195.467)"
     d="M 8925.74,3954.34 L 8920.44,3950.49 L 9010.37,3826.72 L 9014.42,3826.72 L 9016.08,3829.99 L 8925.74,3954.34 Z "
     id="path480" />
  <path
     stroke="transparent"
     fill="#0000ff"
     transform="matrix(0.0666667 0 0 0.0666667 -107.933 -195.467)"
     d="M 9010.9,4576.26 L 9004.46,4577.44 L 9001.19,4559.64 L 9007.63,4558.46 L 9010.9,4576.26 Z "
     id="path482" />
  <path
     stroke="transparent"
     fill="#0000ff"
     transform="matrix(0.0666667 0 0 0.0666667 -107.933 -195.467)"
     d="M 9004.36,4540.66 L 8997.92,4541.84 L 8994.65,4524.04 L 9001.09,4522.85 L 9004.36,4540.66 Z "
     id="path484" />
  <path
     stroke="transparent"
     fill="#0000ff"
     transform="matrix(0.0666667 0 0 0.0666667 -107.933 -195.467)"
     d="M 8997.82,4505.05 L 8991.38,4506.24 L 8988.11,4488.43 L 8994.55,4487.25 L 8997.82,4505.05 Z "
     id="path486" />
  <path
     stroke="transparent"
     fill="#0000ff"
     transform="matrix(0.0666667 0 0 0.0666667 -107.933 -195.467)"
     d="M 8991.28,4469.45 L 8984.84,4470.63 L 8981.57,4452.83 L 8988.01,4451.65 L 8991.28,4469.45 Z "
     id="path488" />
  <path
     stroke="transparent"
     fill="#0000ff"
     transform="matrix(0.0666667 0 0 0.0666667 -107.933 -195.467)"
     d="M 8984.74,4433.85 L 8978.3,4435.03 L 8975.03,4417.23 L 8981.47,4416.05 L 8984.74,4433.85 Z "
     id="path490" />
  <path
     stroke="transparent"
     fill="#0000ff"
     transform="matrix(0.0666667 0 0 0.0666667 -107.933 -195.467)"
     d="M 8978.2,4398.25 L 8971.76,4399.43 L 8968.49,4381.63 L 8974.93,4380.45 L 8978.2,4398.25 Z "
     id="path492" />
  <path
     stroke="transparent"
     fill="#0000ff"
     transform="matrix(0.0666667 0 0 0.0666667 -107.933 -195.467)"
     d="M 8971.66,4362.65 L 8965.22,4363.83 L 8961.95,4346.03 L 8968.39,4344.85 L 8971.66,4362.65 Z "
     id="path494" />
  <path
     stroke="transparent"
     fill="#0000ff"
     transform="matrix(0.0666667 0 0 0.0666667 -107.933 -195.467)"
     d="M 8965.12,4327.05 L 8958.68,4328.23 L 8955.41,4310.43 L 8961.85,4309.25 L 8965.12,4327.05 Z "
     id="path496" />
  <path
     stroke="transparent"
     fill="#0000ff"
     transform="matrix(0.0666667 0 0 0.0666667 -107.933 -195.467)"
     d="M 8958.58,4291.44 L 8952.14,4292.63 L 8948.87,4274.83 L 8955.31,4273.64 L 8958.58,4291.44 Z "
     id="path498" />
  <path
     stroke="transparent"
     fill="#0000ff"
     transform="matrix(0.0666667 0 0 0.0666667 -107.933 -195.467)"
     d="M 8952.04,4255.84 L 8945.6,4257.03 L 8942.33,4239.22 L 8948.77,4238.04 L 8952.04,4255.84 Z "
     id="path500" />
  <path
     stroke="transparent"
     fill="#0000ff"
     transform="matrix(0.0666667 0 0 0.0666667 -107.933 -195.467)"
     d="M 8945.5,4220.24 L 8939.06,4221.42 L 8935.79,4203.62 L 8942.23,4202.44 L 8945.5,4220.24 Z "
     id="path502" />
  <path
     stroke="transparent"
     fill="#0000ff"
     transform="matrix(0.0666667 0 0 0.0666667 -107.933 -195.467)"
     d="M 8938.96,4184.64 L 8932.52,4185.82 L 8929.25,4168.02 L 8935.69,4166.84 L 8938.96,4184.64 Z "
     id="path504" />
  <path
     stroke="transparent"
     fill="#0000ff"
     transform="matrix(0.0666667 0 0 0.0666667 -107.933 -195.467)"
     d="M 8932.42,4149.04 L 8925.98,4150.22 L 8922.71,4132.42 L 8929.15,4131.24 L 8932.42,4149.04 Z "
     id="path506" />
  <path
     stroke="transparent"
     fill="#0000ff"
     transform="matrix(0.0666667 0 0 0.0666667 -107.933 -195.467)"
     d="M 8925.88,4113.44 L 8919.44,4114.62 L 8916.17,4096.82 L 8922.61,4095.64 L 8925.88,4113.44 Z "
     id="path508" />
  <path
     stroke="transparent"
     fill="#0000ff"
     transform="matrix(0.0666667 0 0 0.0666667 -107.933 -195.467)"
     d="M 8919.34,4077.84 L 8912.9,4079.02 L 8909.63,4061.22 L 8916.07,4060.03 L 8919.34,4077.84 Z "
     id="path510" />
  <path
     stroke="transparent"
     fill="#0000ff"
     transform="matrix(0.0666667 0 0 0.0666667 -107.933 -195.467)"
     d="M 8912.8,4042.23 L 8906.36,4043.42 L 8903.09,4025.62 L 8909.53,4024.43 L 8912.8,4042.23 Z "
     id="path512" />
  <path
     stroke="transparent"
     fill="#0000ff"
     transform="matrix(0.0666667 0 0 0.0666667 -107.933 -195.467)"
     d="M 9404.46,4523.04 L 9398.04,4521.77 L 9401.35,4505.02 L 9407.77,4506.29 L 9404.46,4523.04 Z "
     id="path514" />
  <path
     stroke="transparent"
     fill="#0000ff"
     transform="matrix(0.0666667 0 0 0.0666667 -107.933 -195.467)"
     d="M 9411.07,4489.54 L 9404.66,4488.27 L 9407.96,4471.52 L 9414.38,4472.79 L 9411.07,4489.54 Z "
     id="path516" />
  <path
     stroke="transparent"
     fill="#0000ff"
     transform="matrix(0.0666667 0 0 0.0666667 -107.933 -195.467)"
     d="M 9417.69,4456.04 L 9411.27,4454.77 L 9414.58,4438.02 L 9421,4439.29 L 9417.69,4456.04 Z "
     id="path518" />
  <path
     stroke="transparent"
     fill="#0000ff"
     transform="matrix(0.0666667 0 0 0.0666667 -107.933 -195.467)"
     d="M 9424.31,4422.54 L 9417.89,4421.27 L 9421.2,4404.52 L 9427.62,4405.79 L 9424.31,4422.54 Z "
     id="path520" />
  <path
     stroke="transparent"
     fill="#0000ff"
     transform="matrix(0.0666667 0 0 0.0666667 -107.933 -195.467)"
     d="M 9430.93,4389.04 L 9424.51,4387.77 L 9427.82,4371.02 L 9434.24,4372.29 L 9430.93,4389.04 Z "
     id="path522" />
  <path
     stroke="transparent"
     fill="#0000ff"
     transform="matrix(0.0666667 0 0 0.0666667 -107.933 -195.467)"
     d="M 9437.54,4355.54 L 9431.13,4354.27 L 9434.44,4337.52 L 9440.85,4338.79 L 9437.54,4355.54 Z "
     id="path524" />
  <path
     stroke="transparent"
     fill="#0000ff"
     transform="matrix(0.0666667 0 0 0.0666667 -107.933 -195.467)"
     d="M 9444.16,4322.04 L 9437.74,4320.77 L 9441.05,4304.02 L 9447.47,4305.29 L 9444.16,4322.04 Z "
     id="path526" />
  <path
     stroke="transparent"
     fill="#0000ff"
     transform="matrix(0.0666667 0 0 0.0666667 -107.933 -195.467)"
     d="M 9450.78,4288.54 L 9444.36,4287.27 L 9447.67,4270.52 L 9454.09,4271.79 L 9450.78,4288.54 Z "
     id="path528" />
  <path
     stroke="transparent"
     fill="#0000ff"
     transform="matrix(0.0666667 0 0 0.0666667 -107.933 -195.467)"
     d="M 9457.4,4255.04 L 9450.98,4253.77 L 9454.29,4237.02 L 9460.71,4238.29 L 9457.4,4255.04 Z "
     id="path530" />
  <path
     stroke="transparent"
     fill="#0000ff"
     transform="matrix(0.0666667 0 0 0.0666667 -107.933 -195.467)"
     d="M 9464.01,4221.54 L 9457.6,4220.27 L 9460.91,4203.52 L 9467.32,4204.79 L 9464.01,4221.54 Z "
     id="path532" />
  <path
     stroke="transparent"
     fill="#0000ff"
     transform="matrix(0.0666667 0 0 0.0666667 -107.933 -195.467)"
     d="M 9470.63,4188.04 L 9464.21,4186.77 L 9467.52,4170.02 L 9473.94,4171.29 L 9470.63,4188.04 Z "
     id="path534" />
  <path
     stroke="transparent"
     fill="#0000ff"
     transform="matrix(0.0666667 0 0 0.0666667 -107.933 -195.467)"
     d="M 9477.25,4154.54 L 9470.83,4153.27 L 9474.14,4136.52 L 9480.56,4137.79 L 9477.25,4154.54 Z "
     id="path536" />
  <path
     stroke="transparent"
     fill="#0000ff"
     transform="matrix(0.0666667 0 0 0.0666667 -107.933 -195.467)"
     d="M 9483.87,4121.04 L 9477.45,4119.77 L 9480.76,4103.02 L 9487.18,4104.29 L 9483.87,4121.04 Z "
     id="path538" />
  <path
     stroke="transparent"
     fill="#0000ff"
     transform="matrix(0.0666667 0 0 0.0666667 -107.933 -195.467)"
     d="M 9490.49,4087.54 L 9484.07,4086.27 L 9487.38,4069.52 L 9493.79,4070.79 L 9490.49,4087.54 Z "
     id="path540" />
  <path
     stroke="transparent"
     fill="#0000ff"
     transform="matrix(0.0666667 0 0 0.0666667 -107.933 -195.467)"
     d="M 9497.1,4054.04 L 9490.68,4052.77 L 9493.99,4036.02 L 9500.41,4037.29 L 9497.1,4054.04 Z "
     id="path542" />
  <text
     x="0"
     y="0"
     stroke="transparent"
     fill="#000000"
     transform="matrix(0.0666667 0 0 0.0666667 420.436 148.867)"
     style="font:normal normal bold 78px 'Times New Roman'"
     id="text544">
Tautomer </text>
  <text
     x="0"
     y="0"
     stroke="transparent"
     fill="#000000"
     transform="matrix(0.0666667 0 0 0.0666667 444.062 148.867)"
     style="font:normal normal bold 78px 'Times New Roman'"
     id="text546">
B </text>
  <text
     x="0"
     y="0"
     stroke="transparent"
     fill="#000000"
     transform="matrix(0.0666667 0 0 0.0666667 448.863 148.867)"
     style="font:normal normal bold 78px 'Times New Roman'"
     id="text548">
- </text>
  <text
     x="0"
     y="0"
     stroke="transparent"
     fill="#000000"
     transform="matrix(0.0666667 0 0 0.0666667 451.93 148.867)"
     style="font:normal normal bold 78px 'Times New Roman'"
     id="text550">
literature </text>
  <text
     x="0"
     y="0"
     stroke="transparent"
     fill="#000000"
     transform="matrix(0.0666667 0 0 0.0666667 474.489 148.867)"
     style="font:normal normal bold 78px 'Times New Roman'"
     id="text552">
configuration </text>
  <text
     x="0"
     y="0"
     stroke="transparent"
     fill="#000000"
     transform="matrix(0.0666667 0 0 0.0666667 506.031 148.867)"
     style="font:normal normal bold 78px 'Times New Roman'"
     id="text554">
(TABLIT)</text>
  <path
     stroke="transparent"
     fill="#000000"
     transform="matrix(0.0666667 0 0 0.0666667 -107.933 -195.467)"
     d="M 5621.79,3434.17 L 5628.33,3434.17 L 5628.33,3628.56 L 5625.06,3630.45 L 5621.79,3628.56 L 5621.79,3434.17 Z "
     id="path556" />
  <path
     stroke="transparent"
     fill="#000000"
     transform="matrix(0.0666667 0 0 0.0666667 -107.933 -195.467)"
     d="M 8539.14,3434.17 L 8545.68,3434.17 L 8545.68,3628.56 L 8542.41,3630.45 L 8539.14,3628.56 L 8539.14,3434.17 Z "
     id="path558" />
  <path
     stroke="transparent"
     fill="#ff00ff"
     transform="matrix(0.0666667 0 0 0.0666667 -107.933 -195.467)"
     d="M 6113.13,4584.95 L 6107.14,4582.32 L 6114.42,4565.74 L 6120.41,4568.37 L 6113.13,4584.95 Z "
     id="path560" />
  <path
     stroke="transparent"
     fill="#ff00ff"
     transform="matrix(0.0666667 0 0 0.0666667 -107.933 -195.467)"
     d="M 6127.7,4551.8 L 6121.71,4549.17 L 6128.99,4532.59 L 6134.98,4535.22 L 6127.7,4551.8 Z "
     id="path562" />
  <path
     stroke="transparent"
     fill="#ff00ff"
     transform="matrix(0.0666667 0 0 0.0666667 -107.933 -195.467)"
     d="M 6142.26,4518.65 L 6136.27,4516.02 L 6143.55,4499.44 L 6149.54,4502.07 L 6142.26,4518.65 Z "
     id="path564" />
  <path
     stroke="transparent"
     fill="#ff00ff"
     transform="matrix(0.0666667 0 0 0.0666667 -107.933 -195.467)"
     d="M 6156.83,4485.5 L 6150.84,4482.87 L 6158.12,4466.29 L 6164.11,4468.92 L 6156.83,4485.5 Z "
     id="path566" />
  <path
     stroke="transparent"
     fill="#ff00ff"
     transform="matrix(0.0666667 0 0 0.0666667 -107.933 -195.467)"
     d="M 6171.39,4452.35 L 6165.4,4449.72 L 6172.68,4433.14 L 6178.67,4435.77 L 6171.39,4452.35 Z "
     id="path568" />
  <path
     stroke="transparent"
     fill="#ff00ff"
     transform="matrix(0.0666667 0 0 0.0666667 -107.933 -195.467)"
     d="M 6185.96,4419.2 L 6179.97,4416.57 L 6187.25,4399.99 L 6193.24,4402.62 L 6185.96,4419.2 Z "
     id="path570" />
  <path
     stroke="transparent"
     fill="#ff00ff"
     transform="matrix(0.0666667 0 0 0.0666667 -107.933 -195.467)"
     d="M 6200.52,4386.05 L 6194.53,4383.42 L 6201.82,4366.84 L 6207.81,4369.47 L 6200.52,4386.05 Z "
     id="path572" />
  <path
     stroke="transparent"
     fill="#ff00ff"
     transform="matrix(0.0666667 0 0 0.0666667 -107.933 -195.467)"
     d="M 6215.09,4352.9 L 6209.1,4350.27 L 6216.38,4333.69 L 6222.37,4336.32 L 6215.09,4352.9 Z "
     id="path574" />
  <path
     stroke="transparent"
     fill="#ff00ff"
     transform="matrix(0.0666667 0 0 0.0666667 -107.933 -195.467)"
     d="M 6229.65,4319.75 L 6223.66,4317.12 L 6230.95,4300.54 L 6236.94,4303.17 L 6229.65,4319.75 Z "
     id="path576" />
  <path
     stroke="transparent"
     fill="#ff00ff"
     transform="matrix(0.0666667 0 0 0.0666667 -107.933 -195.467)"
     d="M 6244.22,4286.6 L 6238.23,4283.97 L 6245.51,4267.39 L 6251.5,4270.02 L 6244.22,4286.6 Z "
     id="path578" />
  <path
     stroke="transparent"
     fill="#ff00ff"
     transform="matrix(0.0666667 0 0 0.0666667 -107.933 -195.467)"
     d="M 6258.79,4253.45 L 6252.8,4250.82 L 6260.08,4234.24 L 6266.07,4236.87 L 6258.79,4253.45 Z "
     id="path580" />
  <path
     stroke="transparent"
     fill="#ff00ff"
     transform="matrix(0.0666667 0 0 0.0666667 -107.933 -195.467)"
     d="M 6273.35,4220.3 L 6267.36,4217.66 L 6274.64,4201.09 L 6280.63,4203.72 L 6273.35,4220.3 Z "
     id="path582" />
  <path
     stroke="transparent"
     fill="#ff00ff"
     transform="matrix(0.0666667 0 0 0.0666667 -107.933 -195.467)"
     d="M 9029.8,4586.49 L 9023.81,4583.86 L 9031.12,4567.22 L 9037.11,4569.85 L 9029.8,4586.49 Z "
     id="path584" />
  <path
     stroke="transparent"
     fill="#ff00ff"
     transform="matrix(0.0666667 0 0 0.0666667 -107.933 -195.467)"
     d="M 9044.42,4553.21 L 9038.43,4550.58 L 9045.75,4533.93 L 9051.74,4536.57 L 9044.42,4553.21 Z "
     id="path586" />
  <path
     stroke="transparent"
     fill="#ff00ff"
     transform="matrix(0.0666667 0 0 0.0666667 -107.933 -195.467)"
     d="M 9059.05,4519.92 L 9053.06,4517.29 L 9060.37,4500.65 L 9066.36,4503.28 L 9059.05,4519.92 Z "
     id="path588" />
  <path
     stroke="transparent"
     fill="#ff00ff"
     transform="matrix(0.0666667 0 0 0.0666667 -107.933 -195.467)"
     d="M 9073.67,4486.64 L 9067.68,4484.01 L 9075,4467.37 L 9080.99,4470 L 9073.67,4486.64 Z "
     id="path590" />
  <path
     stroke="transparent"
     fill="#ff00ff"
     transform="matrix(0.0666667 0 0 0.0666667 -107.933 -195.467)"
     d="M 9088.3,4453.36 L 9082.31,4450.72 L 9089.62,4434.08 L 9095.61,4436.71 L 9088.3,4453.36 Z "
     id="path592" />
  <path
     stroke="transparent"
     fill="#ff00ff"
     transform="matrix(0.0666667 0 0 0.0666667 -107.933 -195.467)"
     d="M 9102.92,4420.07 L 9096.93,4417.44 L 9104.25,4400.8 L 9110.24,4403.43 L 9102.92,4420.07 Z "
     id="path594" />
  <path
     stroke="transparent"
     fill="#ff00ff"
     transform="matrix(0.0666667 0 0 0.0666667 -107.933 -195.467)"
     d="M 9117.55,4386.79 L 9111.56,4384.15 L 9118.87,4367.51 L 9124.86,4370.14 L 9117.55,4386.79 Z "
     id="path596" />
  <path
     stroke="transparent"
     fill="#ff00ff"
     transform="matrix(0.0666667 0 0 0.0666667 -107.933 -195.467)"
     d="M 9132.17,4353.5 L 9126.18,4350.87 L 9133.49,4334.23 L 9139.48,4336.86 L 9132.17,4353.5 Z "
     id="path598" />
  <path
     stroke="transparent"
     fill="#ff00ff"
     transform="matrix(0.0666667 0 0 0.0666667 -107.933 -195.467)"
     d="M 9146.8,4320.22 L 9140.81,4317.59 L 9148.12,4300.94 L 9154.11,4303.57 L 9146.8,4320.22 Z "
     id="path600" />
  <path
     stroke="transparent"
     fill="#ff00ff"
     transform="matrix(0.0666667 0 0 0.0666667 -107.933 -195.467)"
     d="M 9161.42,4286.93 L 9155.43,4284.3 L 9162.74,4267.66 L 9168.73,4270.29 L 9161.42,4286.93 Z "
     id="path602" />
  <path
     stroke="transparent"
     fill="#ff00ff"
     transform="matrix(0.0666667 0 0 0.0666667 -107.933 -195.467)"
     d="M 9176.05,4253.65 L 9170.06,4251.02 L 9177.37,4234.37 L 9183.36,4237.01 L 9176.05,4253.65 Z "
     id="path604" />
  <path
     stroke="transparent"
     fill="#ff00ff"
     transform="matrix(0.0666667 0 0 0.0666667 -107.933 -195.467)"
     d="M 9190.67,4220.36 L 9184.68,4217.73 L 9191.99,4201.09 L 9197.98,4203.72 L 9190.67,4220.36 Z "
     id="path606" />
</svg>
