<?xml version="1.0" encoding="UTF-8" standalone="no"?>
<svg
   width="524px"
   height="343px"
   viewBox="0 0 524 343"
   style="background-color: #ffffff00"
   version="1.1"
   id="svg128"
   sodipodi:docname="2oj9_struc_taapdb.svg"
   inkscape:version="1.2 (dc2aedaf03, 2022-05-15)"
   xmlns:inkscape="http://www.inkscape.org/namespaces/inkscape"
   xmlns:sodipodi="http://sodipodi.sourceforge.net/DTD/sodipodi-0.dtd"
   xmlns="http://www.w3.org/2000/svg"
   xmlns:svg="http://www.w3.org/2000/svg">
  <defs
     id="defs132">
    <filter
       style="color-interpolation-filters:sRGB;"
       inkscape:label="Drop Shadow"
       id="filter1264"
       x="-0.10514657"
       y="-0.10514657"
       width="1.2102931"
       height="1.2102931">
      <feFlood
         flood-opacity="0.929412"
         flood-color="rgb(228,14,234)"
         result="flood"
         id="feFlood1254" />
      <feComposite
         in="flood"
         in2="SourceGraphic"
         operator="in"
         result="composite1"
         id="feComposite1256" />
      <feGaussianBlur
         in="composite1"
         stdDeviation="5"
         result="blur"
         id="feGaussianBlur1258" />
      <feOffset
         dx="0"
         dy="0"
         result="offset"
         id="feOffset1260" />
      <feComposite
         in="SourceGraphic"
         in2="offset"
         operator="over"
         result="fbSourceGraphic"
         id="feComposite1262" />
      <feColorMatrix
         result="fbSourceGraphicAlpha"
         in="fbSourceGraphic"
         values="0 0 0 -1 0 0 0 0 -1 0 0 0 0 -1 0 0 0 0 1 0"
         id="feColorMatrix1482" />
      <feFlood
         id="feFlood1484"
         flood-opacity="1"
         flood-color="rgb(255,255,0)"
         result="flood"
         in="fbSourceGraphic" />
      <feComposite
         in2="fbSourceGraphic"
         id="feComposite1486"
         in="flood"
         operator="in"
         result="composite1" />
      <feGaussianBlur
         id="feGaussianBlur1488"
         in="composite1"
         stdDeviation="6.23053"
         result="blur" />
      <feOffset
         id="feOffset1490"
         dx="0"
         dy="0"
         result="offset" />
      <feComposite
         in2="offset"
         id="feComposite1492"
         in="fbSourceGraphic"
         operator="over"
         result="composite2" />
    </filter>
    <filter
       y="-1.2572981"
       height="3.5145963"
       inkscape:menu-tooltip="Darkens the edge with an inner blur and adds a flexible glow"
       inkscape:menu="Shadows and Glows"
       inkscape:label="Dark and Glow"
       style="color-interpolation-filters:sRGB;"
       id="filter1600"
       x="-1.5958434"
       width="4.1916867">
      <feGaussianBlur
         stdDeviation="5"
         result="result6"
         id="feGaussianBlur1590" />
      <feComposite
         result="result8"
         in="SourceGraphic"
         operator="atop"
         in2="result6"
         id="feComposite1592" />
      <feComposite
         result="result9"
         operator="over"
         in2="SourceAlpha"
         in="result8"
         id="feComposite1594" />
      <feColorMatrix
         values="1 0 0 0 0 0 1 0 0 0 0 0 1 0 0 0 0 0 1 0 "
         result="result10"
         id="feColorMatrix1596" />
      <feBlend
         in="result10"
         mode="normal"
         in2="result6"
         id="feBlend1598" />
    </filter>
    <filter
       style="color-interpolation-filters:sRGB;"
       inkscape:label="Drop Shadow"
       id="filter1793"
       x="-4.5539615"
       y="-4.3893245"
       width="10.040531"
       height="9.8445804">
      <feFlood
         flood-opacity="1"
         flood-color="rgb(255,16,255)"
         result="flood"
         id="feFlood1783" />
      <feComposite
         in="flood"
         in2="SourceGraphic"
         operator="in"
         result="composite1"
         id="feComposite1785" />
      <feGaussianBlur
         in="composite1"
         stdDeviation="18.0685"
         result="blur"
         id="feGaussianBlur1787" />
      <feOffset
         dx="0"
         dy="0"
         result="offset"
         id="feOffset1789" />
      <feComposite
         in="SourceGraphic"
         in2="offset"
         operator="over"
         result="fbSourceGraphic"
         id="feComposite1791" />
      <feColorMatrix
         result="fbSourceGraphicAlpha"
         in="fbSourceGraphic"
         values="0 0 0 -1 0 0 0 0 -1 0 0 0 0 -1 0 0 0 0 1 0"
         id="feColorMatrix1795" />
      <feFlood
         id="feFlood1797"
         flood-opacity="1"
         flood-color="rgb(255,16,255)"
         result="flood"
         in="fbSourceGraphic" />
      <feComposite
         in2="fbSourceGraphic"
         id="feComposite1799"
         in="flood"
         operator="in"
         result="composite1" />
      <feGaussianBlur
         id="feGaussianBlur1801"
         in="composite1"
         stdDeviation="18.0685"
         result="blur" />
      <feOffset
         id="feOffset1803"
         dx="0"
         dy="0"
         result="offset" />
      <feComposite
         in2="offset"
         id="feComposite1805"
         in="fbSourceGraphic"
         operator="over"
         result="fbSourceGraphic" />
      <feColorMatrix
         result="fbSourceGraphicAlpha"
         in="fbSourceGraphic"
         values="0 0 0 -1 0 0 0 0 -1 0 0 0 0 -1 0 0 0 0 1 0"
         id="feColorMatrix1843" />
      <feFlood
         id="feFlood1845"
         flood-opacity="1"
         flood-color="rgb(255,16,255)"
         result="flood"
         in="fbSourceGraphic" />
      <feComposite
         in2="fbSourceGraphic"
         id="feComposite1847"
         in="flood"
         operator="in"
         result="composite1" />
      <feGaussianBlur
         id="feGaussianBlur1849"
         in="composite1"
         stdDeviation="6.85358"
         result="blur" />
      <feOffset
         id="feOffset1851"
         dx="0"
         dy="0"
         result="offset" />
      <feComposite
         in2="offset"
         id="feComposite1853"
         in="fbSourceGraphic"
         operator="over"
         result="fbSourceGraphic" />
      <feColorMatrix
         result="fbSourceGraphicAlpha"
         in="fbSourceGraphic"
         values="0 0 0 -1 0 0 0 0 -1 0 0 0 0 -1 0 0 0 0 1 0"
         id="feColorMatrix1855" />
      <feFlood
         id="feFlood1857"
         flood-opacity="1"
         flood-color="rgb(255,16,255)"
         result="flood"
         in="fbSourceGraphic" />
      <feComposite
         in2="fbSourceGraphic"
         id="feComposite1859"
         in="flood"
         operator="in"
         result="composite1" />
      <feGaussianBlur
         id="feGaussianBlur1861"
         in="composite1"
         stdDeviation="6.85358"
         result="blur" />
      <feOffset
         id="feOffset1863"
         dx="0"
         dy="0"
         result="offset" />
      <feComposite
         in2="offset"
         id="feComposite1865"
         in="fbSourceGraphic"
         operator="over"
         result="composite2" />
    </filter>
  </defs>
  <sodipodi:namedview
     id="namedview130"
     pagecolor="#ffffff"
     bordercolor="#666666"
     borderopacity="1.0"
     inkscape:showpageshadow="2"
     inkscape:pageopacity="0.0"
     inkscape:pagecheckerboard="0"
     inkscape:deskcolor="#d1d1d1"
     showgrid="false"
     inkscape:zoom="2.3015267"
     inkscape:cx="262.21725"
     inkscape:cy="136.86567"
     inkscape:window-width="3440"
     inkscape:window-height="1377"
     inkscape:window-x="-8"
     inkscape:window-y="-8"
     inkscape:window-maximized="1"
     inkscape:current-layer="layer4" />
  <g
     inkscape:groupmode="layer"
     id="layer6"
     inkscape:label="CC"
     style="display:inline;filter:url(#filter1264)"
     sodipodi:insensitive="true">
    <g
       inkscape:groupmode="layer"
       id="layer2"
       inkscape:label="CCtext"
       style="display:inline">
      <text
         x="0"
         y="0"
         stroke="transparent"
         fill="#000000"
         transform="matrix(0.0666667,0,0,0.0666667,386.41,216.728)"
         style="font-style:normal;font-variant:normal;font-weight:normal;font-stretch:normal;font-size:200px;line-height:normal;font-family:Arial"
         id="text2">NH</text>
      <text
         x="0"
         y="0"
         stroke="transparent"
         fill="#000000"
         transform="matrix(0.0666667,0,0,0.0666667,326.01,251.369)"
         style="font-style:normal;font-variant:normal;font-weight:normal;font-stretch:normal;font-size:200px;line-height:normal;font-family:Arial"
         id="text4">O</text>
      <text
         x="0"
         y="0"
         stroke="transparent"
         fill="#000000"
         transform="matrix(0.0666667,0,0,0.0666667,286.41,43.5231)"
         style="font-style:normal;font-variant:normal;font-weight:normal;font-stretch:normal;font-size:200px;line-height:normal;font-family:Arial"
         id="text8">N</text>
      <text
         x="0"
         y="0"
         stroke="transparent"
         fill="#000000"
         transform="matrix(0.0666667,0,0,0.0666667,262.899,214.448)"
         style="font-style:normal;font-variant:normal;font-weight:normal;font-stretch:normal;font-size:200px;line-height:normal;font-family:Arial"
         id="text10">N</text>
      <text
         x="0"
         y="0"
         stroke="transparent"
         fill="#000000"
         transform="matrix(0.0666667,0,0,0.0666667,262.899,138.604)"
         style="font-style:normal;font-variant:normal;font-weight:normal;font-stretch:normal;font-size:200px;line-height:normal;font-family:Arial"
         id="text12">H</text>
      <text
         x="0"
         y="0"
         stroke="transparent"
         fill="#000000"
         transform="matrix(0.0666667,0,0,0.0666667,262.899,149.727)"
         style="font-style:normal;font-variant:normal;font-weight:normal;font-stretch:normal;font-size:200px;line-height:normal;font-family:Arial"
         id="text14">N</text>
      <text
         x="0"
         y="0"
         stroke="transparent"
         fill="#000000"
         transform="matrix(0.0666667,0,0,0.0666667,77.6263,270.185)"
         style="font-style:normal;font-variant:normal;font-weight:normal;font-stretch:normal;font-size:200px;line-height:normal;font-family:Arial"
         id="text16">N</text>
      <text
         x="0"
         y="0"
         stroke="transparent"
         fill="#000000"
         transform="matrix(0.0666667,0,0,0.0666667,120.933,222.087)"
         style="font-style:normal;font-variant:normal;font-weight:normal;font-stretch:normal;font-size:200px;line-height:normal;font-family:Arial"
         id="text18">N</text>
    </g>
    <g
       inkscape:groupmode="layer"
       id="layer1"
       inkscape:label="CCnotext"
       style="display:inline">
      <path
         stroke="transparent"
         fill="#000000"
         transform="matrix(0.0666667,0,0,0.0666667,-117.34,-177.733)"
         d="m 6722.48,5329.31 5.77,-10 h 11.55 l 294.22,509.61 -11.54,20 z"
         id="path20" />
      <path
         stroke="transparent"
         fill="#000000"
         transform="matrix(0.0666667,0,0,0.0666667,-117.34,-177.733)"
         d="m 7016.78,4799.57 11.47,0.12 5.77,10 -294.22,509.62 h -11.55 l -5.77,-10 z"
         id="path22" />
      <path
         stroke="transparent"
         fill="#000000"
         transform="matrix(0.0666667,0,0,0.0666667,-117.34,-177.733)"
         d="m 7061.16,4866.69 17.32,10 -258.43,447.62 -17.32,-10 z"
         id="path24" />
      <path
         stroke="transparent"
         fill="#000000"
         transform="matrix(0.0666667,0,0,0.0666667,-117.34,-177.733)"
         d="m 7634.02,4789.69 -11.54,20 h -588.46 l -5.77,-10 5.92,-10 z"
         id="path26" />
      <path
         stroke="transparent"
         fill="#000000"
         transform="matrix(0.0666667,0,0,0.0666667,-117.34,-177.733)"
         d="m 7939.8,5319.31 h -23.1 l -294.22,-509.62 11.54,-20 z"
         id="path28" />
      <path
         stroke="transparent"
         fill="#000000"
         transform="matrix(0.0666667,0,0,0.0666667,-117.34,-177.733)"
         d="m 7853.77,5314.31 -17.32,10 -258.43,-447.62 17.32,-10 z"
         id="path30" />
      <path
         stroke="transparent"
         fill="#000000"
         transform="matrix(0.0666667,0,0,0.0666667,-117.34,-177.733)"
         d="m 7707.62,5721.45 -17.32,-10 226.4,-392.14 h 23.1 z"
         id="path32" />
      <path
         stroke="transparent"
         fill="#000000"
         transform="matrix(0.0666667,0,0,0.0666667,-117.34,-177.733)"
         d="m 7532.25,5828.92 v 20 h -509.77 l 11.54,-20 z"
         id="path34" />
      <path
         stroke="transparent"
         fill="#000000"
         transform="matrix(0.0666667,0,0,0.0666667,-117.34,-177.733)"
         d="m 6821.34,6289.3 -17.32,-10 257.14,-445.38 17.32,10 z"
         id="path36" />
      <path
         stroke="transparent"
         fill="#000000"
         transform="matrix(0.0666667,0,0,0.0666667,-117.34,-177.733)"
         d="m 6758.99,6253.3 -17.32,-10 257.14,-445.38 17.32,10 z"
         id="path38" />
      <path
         stroke="transparent"
         fill="#000000"
         transform="matrix(0.0666667,0,0,0.0666667,-117.34,-177.733)"
         d="m 5222.48,3770.46 11.54,-20 h 588.46 l 5.77,10 -5.77,10 z"
         id="path40" />
      <path
         stroke="transparent"
         fill="#000000"
         transform="matrix(0.0666667,0,0,0.0666667,-117.34,-177.733)"
         d="m 4916.7,3240.85 h 23.1 l 294.22,509.61 -11.54,20 z"
         id="path42" />
      <path
         stroke="transparent"
         fill="#000000"
         transform="matrix(0.0666667,0,0,0.0666667,-117.34,-177.733)"
         d="m 5002.73,3245.85 17.32,-10 258.43,447.61 -17.32,10 z"
         id="path44" />
      <path
         stroke="transparent"
         fill="#000000"
         transform="matrix(0.0666667,0,0,0.0666667,-117.34,-177.733)"
         d="m 5222.48,2711.23 11.54,20 -294.22,509.62 h -23.1 z"
         id="path46" />
      <path
         stroke="transparent"
         fill="#000000"
         transform="matrix(0.0666667,0,0,0.0666667,-117.34,-177.733)"
         d="m 5834.02,2711.23 -11.54,20 h -588.46 l -11.54,-20 z"
         id="path48" />
      <path
         stroke="transparent"
         fill="#000000"
         transform="matrix(0.0666667,0,0,0.0666667,-117.34,-177.733)"
         d="m 5786.68,2783.23 v 20 h -516.86 v -20 z"
         id="path50" />
      <path
         stroke="transparent"
         fill="#000000"
         transform="matrix(0.0666667,0,0,0.0666667,-117.34,-177.733)"
         d="m 6075.7,3129.83 -17.32,10 -235.9,-408.6 11.54,-20 z"
         id="path52" />
      <path
         stroke="transparent"
         fill="#000000"
         transform="matrix(0.0666667,0,0,0.0666667,-117.34,-177.733)"
         d="m 6052.18,3352.61 17.32,10 -229.7,397.85 h -11.55 l -5.77,-10 z"
         id="path54" />
      <path
         stroke="transparent"
         fill="#000000"
         transform="matrix(0.0666667,0,0,0.0666667,-117.34,-177.733)"
         d="m 5989.82,3316.61 17.32,10 -211.8,366.85 -17.32,-10 z"
         id="path56" />
      <path
         stroke="transparent"
         fill="#000000"
         transform="matrix(0.0666667,0,0,0.0666667,-117.34,-177.733)"
         d="m 5822.48,3770.46 5.77,-10 h 11.55 l 294.22,509.62 -11.54,20 z"
         id="path58" />
      <path
         stroke="transparent"
         fill="#000000"
         transform="matrix(0.0666667,0,0,0.0666667,-117.34,-177.733)"
         d="m 6122.48,4290.08 11.54,-20 h 513.23 v 20 z"
         id="path60" />
      <path
         stroke="transparent"
         fill="#000000"
         transform="matrix(0.0666667,0,0,0.0666667,-117.34,-177.733)"
         d="m 6799.21,4402.89 17.53,-9.62 217.43,396.42 -5.92,10 -11.47,-0.12 z"
         id="path62" />
      <path
         stroke="transparent"
         fill="#000000"
         transform="matrix(0.0666667,0,0,0.0666667,-117.34,-177.733)"
         d="m 5856.41,5710.48 -16.18,-11.75 275.66,-379.42 h 12.36 l 5.1,10 z"
         id="path64" />
      <path
         stroke="transparent"
         fill="#000000"
         transform="matrix(0.0666667,0,0,0.0666667,-117.34,-177.733)"
         d="m 5798.16,5668.16 -16.18,-11.76 249.18,-342.97 16.18,11.76 z"
         id="path66" />
      <path
         stroke="transparent"
         fill="#000000"
         transform="matrix(0.0666667,0,0,0.0666667,-117.34,-177.733)"
         d="m 5206.09,5630.19 -1.14,-10.88 10,-7.27 456.56,148.35 -6.18,19.02 z"
         id="path68" />
      <path
         stroke="transparent"
         fill="#000000"
         transform="matrix(0.0666667,0,0,0.0666667,-117.34,-177.733)"
         d="m 5194.95,5025.08 10,-5.77 10,7.26 v 585.47 l -10,7.27 -10,-5.78 z"
         id="path70" />
      <path
         stroke="transparent"
         fill="#000000"
         transform="matrix(0.0666667,0,0,0.0666667,-117.34,-177.733)"
         d="m 5663.12,4859.92 6.19,19.02 -454.36,147.63 -10,-7.26 1.14,-10.89 z"
         id="path72" />
      <path
         stroke="transparent"
         fill="#000000"
         transform="matrix(0.0666667,0,0,0.0666667,-117.34,-177.733)"
         d="m 5847.12,4949.38 16.18,-11.75 270.05,371.68 -5.1,10 h -12.36 z"
         id="path74" />
      <path
         stroke="transparent"
         fill="#000000"
         transform="matrix(0.0666667,0,0,0.0666667,-117.34,-177.733)"
         d="m 4165.72,5630.86 v -11.55 l 10,-5.78 509.61,294.23 v 23.1 z"
         id="path76" />
      <path
         stroke="transparent"
         fill="#000000"
         transform="matrix(0.0666667,0,0,0.0666667,-117.34,-177.733)"
         d="m 4155.72,5013.53 20,11.55 v 588.45 l -10,5.78 -10,-5.78 z"
         id="path78" />
      <path
         stroke="transparent"
         fill="#000000"
         transform="matrix(0.0666667,0,0,0.0666667,-117.34,-177.733)"
         d="m 4227.72,5060.88 h 20 v 516.86 h -20 z"
         id="path80" />
      <path
         stroke="transparent"
         fill="#000000"
         transform="matrix(0.0666667,0,0,0.0666667,-117.34,-177.733)"
         d="m 4675.33,4713.53 10,5.78 v 11.55 l -509.61,294.22 -20,-11.55 z"
         id="path82" />
      <path
         stroke="transparent"
         fill="#000000"
         transform="matrix(0.0666667,0,0,0.0666667,-117.34,-177.733)"
         d="m 5206.09,5008.42 -1.14,10.89 -10,5.77 -509.62,-294.22 v -11.55 l 10,-5.78 z"
         id="path84" />
      <path
         stroke="transparent"
         fill="#000000"
         transform="matrix(0.0666667,0,0,0.0666667,-117.34,-177.733)"
         d="m 5137.95,5052.22 -10,17.32 -447.62,-258.43 10,-17.32 z"
         id="path86" />
      <path
         stroke="transparent"
         fill="#000000"
         transform="matrix(0.0666667,0,0,0.0666667,-117.34,-177.733)"
         d="m 5194.95,5613.53 10,5.78 1.14,10.88 -520.76,300.67 v -23.1 z"
         id="path88" />
      <path
         stroke="transparent"
         fill="#000000"
         transform="matrix(0.0666667,0,0,0.0666667,-117.34,-177.733)"
         d="m 5127.95,5569.08 10,17.32 -447.62,258.43 -10,-17.32 z"
         id="path90" />
      <path
         stroke="transparent"
         fill="#000000"
         transform="matrix(0.0666667,0,0,0.0666667,-117.34,-177.733)"
         d="m 4675.33,4119.31 h 20 v 594.22 l -10,5.78 -10,-5.78 z"
         id="path92" />
      <path
         stroke="transparent"
         fill="#000000"
         transform="matrix(0.0666667,0,0,0.0666667,-117.34,-177.733)"
         d="m 3104.06,6628.13 -4.16,-19.56 474.3,-100.82 18.37,16.54 z"
         id="path94" />
      <path
         stroke="transparent"
         fill="#000000"
         transform="matrix(0.0666667,0,0,0.0666667,-117.34,-177.733)"
         d="m 3089.09,6557.7 -4.16,-19.56 430.24,-91.45 4.15,19.56 z"
         id="path96" />
      <path
         stroke="transparent"
         fill="#000000"
         transform="matrix(0.0666667,0,0,0.0666667,-117.34,-177.733)"
         d="m 2684.2,6119.86 24.59,2.58 235.16,407.31 -17.32,10 z"
         id="path98" />
      <path
         stroke="transparent"
         fill="#000000"
         transform="matrix(0.0666667,0,0,0.0666667,-117.34,-177.733)"
         d="m 3095.4,5663.18 5.14,24.18 -391.75,435.08 -24.59,-2.58 z"
         id="path100" />
      <path
         stroke="transparent"
         fill="#000000"
         transform="matrix(0.0666667,0,0,0.0666667,-117.34,-177.733)"
         d="m 3109.05,5755.63 14.86,13.38 -331.47,368.14 -14.87,-13.39 z"
         id="path102" />
      <path
         stroke="transparent"
         fill="#000000"
         transform="matrix(0.0666667,0,0,0.0666667,-117.34,-177.733)"
         d="m 3543.54,5862.7 -8.13,18.27 -434.87,-193.61 -5.14,-24.18 z"
         id="path104" />
      <path
         stroke="transparent"
         fill="#000000"
         transform="matrix(0.0666667,0,0,0.0666667,-117.34,-177.733)"
         d="m 3623.95,6034.37 19.89,2.09 -51.27,487.83 -18.37,-16.54 z"
         id="path106" />
      <path
         stroke="transparent"
         fill="#000000"
         transform="matrix(0.0666667,0,0,0.0666667,-117.34,-177.733)"
         d="m 3754.95,5868.01 -10,-17.32 410.77,-237.16 10,5.78 v 11.55 z"
         id="path108" />
      <path
         stroke="transparent"
         fill="#000000"
         transform="matrix(0.0666667,0,0,0.0666667,-117.34,-177.733)"
         d="m 6133.35,5329.31 -5.1,-10 5.1,-10 h 589.13 l 5.77,10 -5.77,10 z"
         id="path110" />
    </g>
  </g>
  <g
     inkscape:groupmode="layer"
     id="layer3"
     inkscape:label="terminalX"
     sodipodi:insensitive="true"
     style="display:inline;fill:#00ff00;filter:url(#filter1600)">
    <text
       x="0"
       y="0"
       stroke="transparent"
       fill="#000000"
       transform="matrix(0.0666667,0,0,0.0666667,327.41,112.805)"
       style="font-style:normal;font-variant:normal;font-weight:normal;font-stretch:normal;font-size:200px;line-height:normal;font-family:Arial;fill:#00ff00"
       id="text6">N</text>
  </g>
  <g
     inkscape:groupmode="layer"
     id="layer4"
     inkscape:label="dummregion"
     style="display:inline;filter:url(#filter1793)">
    <text
       x="0"
       y="0"
       stroke="transparent"
       fill="#000000"
       transform="matrix(0.0666667,0,0,0.0666667,355.694,84.5209)"
       style="font-style:normal;font-variant:normal;font-weight:normal;font-stretch:normal;font-size:200px;line-height:normal;font-family:Arial"
       id="text124">H</text>
    <path
       stroke="transparent"
       fill="#000000"
       transform="matrix(0.0666667,0,0,0.0666667,-117.34,-177.733)"
       d="m 7066.08,3943.11 14.14,14.14 -242.2,242.2 -14.14,-14.14 z"
       id="path126"
       style="display:inline;filter:url(#filter1264)" />
  </g>
  <g
     inkscape:groupmode="layer"
     id="layer5"
     inkscape:label="protein"
     sodipodi:insensitive="true"
     style="display:inline">
    <path
       stroke="#000000"
       stroke-width="20"
       fill="transparent"
       transform="matrix(0.0666667,0,0,0.0666667,-117.34,-177.733)"
       d="M 1814.47,6690 C 3909.82,8105.23 6841.65,8105.23 8937,6690"
       id="path112"
       style="fill:none;fill-opacity:1" />
    <text
       x="0"
       y="0"
       stroke="transparent"
       fill="#000000"
       transform="matrix(0.0666667,0,0,0.0666667,487.127,281.6)"
       style="font-style:normal;font-variant:normal;font-weight:normal;font-stretch:normal;font-size:240px;line-height:normal;font-family:'Times New Roman'"
       id="text114">2OJ9</text>
    <text
       x="0"
       y="0"
       stroke="transparent"
       fill="#000000"
       transform="matrix(0.0666667,0,0,0.0666667,237.127,321.6)"
       style="font-style:normal;font-variant:normal;font-weight:normal;font-stretch:normal;font-size:240px;line-height:normal;font-family:'Times New Roman'"
       id="text116">Met</text>
    <text
       x="0"
       y="0"
       stroke="transparent"
       fill="#000000"
       transform="matrix(0.0666667,0,0,0.0666667,345.127,309.6)"
       style="font-style:normal;font-variant:normal;font-weight:normal;font-stretch:normal;font-size:240px;line-height:normal;font-family:'Times New Roman'"
       id="text118">Glu</text>
    <path
       stroke="#000000"
       stroke-width="20"
       fill="transparent"
       transform="matrix(0.0666667,0,0,0.0666667,-117.34,-177.733)"
       d="m 7124.65,6920.74 c 19.12,11.04 43.27,5.06 53.9,-13.35 10.63,-18.41 3.74,-42.32 -15.38,-53.36 -19.13,-11.04 -26.02,-34.94 -15.39,-53.35 10.63,-18.41 34.78,-24.4 53.9,-13.36 19.12,11.04 43.27,5.06 53.9,-13.35 10.63,-18.41 3.74,-42.32 -15.39,-53.36 -19.12,-11.04 -26.01,-34.94 -15.38,-53.35 10.63,-18.41 34.78,-24.4 53.9,-13.36 19.12,11.04 43.27,5.06 53.9,-13.35 10.63,-18.41 3.73,-42.32 -15.39,-53.36 -19.12,-11.04 -26.01,-34.94 -15.38,-53.35 10.63,-18.41 34.78,-24.4 53.9,-13.36 19.12,11.04 43.27,5.06 53.9,-13.35 10.63,-18.41 3.73,-42.32 -15.39,-53.36 -19.12,-11.03 -26.01,-34.94 -15.38,-53.35 10.63,-18.41 34.78,-24.39 53.9,-13.35 19.12,11.04 43.27,5.05 53.9,-13.36 10.63,-18.41 3.73,-42.31 -15.39,-53.35 -19.12,-11.04 -26.01,-34.95 -15.38,-53.36 10.63,-18.41 34.78,-24.39 53.9,-13.35 19.12,11.04 43.27,5.05 53.9,-13.36 10.63,-18.41 3.73,-42.31 -15.39,-53.35 -19.12,-11.04 -26.01,-34.95 -15.38,-53.36 10.63,-18.41 34.78,-24.39 53.9,-13.35 19.12,11.04 43.27,5.05 53.89,-13.36 10.63,-18.41 3.74,-42.31 -15.38,-53.35"
       id="path120"
       style="fill:none" />
    <path
       stroke="#000000"
       stroke-width="20"
       fill="transparent"
       transform="matrix(0.0666667,0,0,0.0666667,-117.34,-177.733)"
       d="m 5885.25,7278 c 15.61,15.61 40.5,16.07 55.55,1.02 15.06,-15.06 14.6,-39.95 -1.01,-55.56 -15.61,-15.61 -16.07,-40.5 -1.02,-55.55 15.06,-15.06 39.95,-14.6 55.56,1.01 15.61,15.61 40.5,16.07 55.55,1.02 15.06,-15.06 14.6,-39.95 -1.01,-55.56 -15.61,-15.61 -16.07,-40.5 -1.02,-55.55 15.06,-15.06 39.95,-14.6 55.56,1.01 15.61,15.61 40.5,16.07 55.55,1.02 15.06,-15.06 14.6,-39.95 -1.01,-55.56 -15.61,-15.61 -16.07,-40.5 -1.02,-55.55 15.06,-15.06 39.95,-14.6 55.56,1.01 15.61,15.61 40.5,16.07 55.55,1.02 15.06,-15.06 14.6,-39.95 -1.01,-55.56 -15.61,-15.61 -16.07,-40.5 -1.01,-55.55 15.05,-15.06 39.94,-14.6 55.55,1.01 15.61,15.61 40.5,16.07 55.55,1.01 15.06,-15.05 14.6,-39.94 -1.01,-55.55 -15.61,-15.61 -16.07,-40.5 -1.01,-55.55 15.05,-15.06 39.94,-14.6 55.55,1.01 15.61,15.61 40.5,16.07 55.55,1.01 15.06,-15.05 14.6,-39.94 -1.01,-55.55 -15.61,-15.61 -16.07,-40.5 -1.01,-55.55 15.05,-15.06 39.94,-14.6 55.55,1.01 15.61,15.61 40.5,16.07 55.55,1.01 15.06,-15.05 14.6,-39.94 -1.01,-55.55 -15.61,-15.61 -16.07,-40.5 -1.01,-55.55"
       id="path122"
       style="fill:none" />
  </g>
</svg>
